<?xml version="1.0" standalone="no"?>
<!DOCTYPE svg PUBLIC "-//W3C//DTD SVG 20010904//EN"
 "http://www.w3.org/TR/2001/REC-SVG-20010904/DTD/svg10.dtd">
<svg version="1.0" xmlns="http://www.w3.org/2000/svg"
 width="512.000000pt" height="512.000000pt" viewBox="0 0 512.000000 512.000000"
 preserveAspectRatio="xMidYMid meet">

<g transform="translate(0.000000,512.000000) scale(0.100000,-0.100000)"
fill="#000000" stroke="none">
<path d="M840 4795 c0 -8 7 -15 15 -15 8 0 15 -7 15 -15 0 -8 7 -15 15 -15 8
0 15 5 15 10 0 6 -7 13 -15 16 -8 4 -15 12 -15 20 0 8 -7 14 -15 14 -8 0 -15
-7 -15 -15z"/>
<path d="M1630 4795 c0 -8 7 -15 15 -15 8 0 15 7 15 15 0 8 -7 15 -15 15 -8 0
-15 -7 -15 -15z"/>
<path d="M790 4765 c0 -8 7 -15 15 -15 8 0 15 7 15 15 0 8 -7 15 -15 15 -8 0
-15 -7 -15 -15z"/>
<path d="M1690 4765 c0 -8 7 -15 15 -15 8 0 15 7 15 15 0 8 -7 15 -15 15 -8 0
-15 -7 -15 -15z"/>
<path d="M1240 4740 c0 -5 7 -10 15 -10 8 0 15 5 15 10 0 6 -7 10 -15 10 -8 0
-15 -4 -15 -10z"/>
<path d="M1550 4740 c0 -5 7 -10 15 -10 8 0 15 5 15 10 0 6 -7 10 -15 10 -8 0
-15 -4 -15 -10z"/>
<path d="M938 4733 c7 -3 16 -2 19 1 4 3 -2 6 -13 5 -11 0 -14 -3 -6 -6z"/>
<path d="M1690 4715 c0 -8 7 -15 15 -15 8 0 15 7 15 15 0 8 -7 15 -15 15 -8 0
-15 -7 -15 -15z"/>
<path d="M980 4685 c0 -8 7 -15 15 -15 8 0 15 7 15 15 0 8 -7 15 -15 15 -8 0
-15 -7 -15 -15z"/>
<path d="M2485 4570 c-4 -6 -55 -10 -121 -10 -95 0 -114 -3 -114 -15 0 -11
-12 -15 -51 -15 -31 0 -56 -6 -65 -15 -9 -9 -34 -15 -60 -15 -32 0 -44 -4 -44
-15 0 -10 -10 -15 -34 -15 -19 0 -41 -7 -50 -15 -8 -8 -26 -15 -40 -15 -14 0
-26 -4 -26 -10 0 -5 -18 -10 -40 -10 -29 0 -40 -4 -40 -15 0 -10 -10 -15 -30
-15 -16 0 -30 -4 -30 -10 0 -19 -35 -50 -57 -50 -14 0 -23 -6 -23 -15 0 -10
-10 -15 -30 -15 -16 0 -30 -4 -30 -9 0 -5 -11 -12 -25 -15 -14 -4 -25 -11 -25
-16 0 -6 -7 -10 -15 -10 -8 0 -15 -7 -15 -15 0 -8 -7 -15 -16 -15 -11 0 -15
-6 -12 -18 4 -15 1 -18 -19 -14 -18 3 -31 -3 -48 -22 -12 -14 -26 -26 -30 -26
-11 0 -185 -178 -185 -189 0 -5 5 -11 12 -13 9 -3 9 -6 0 -12 -7 -4 -12 -2
-12 3 0 6 -7 11 -16 11 -11 0 -15 -6 -11 -19 3 -15 0 -17 -16 -13 -16 4 -19 1
-15 -16 4 -15 2 -19 -8 -15 -8 3 -14 -1 -14 -11 0 -9 -7 -16 -15 -16 -8 0 -15
-9 -15 -20 0 -11 -7 -23 -16 -27 -11 -4 -14 -14 -10 -32 3 -14 3 -20 0 -13 -8
17 -34 15 -34 -3 0 -8 -7 -15 -16 -15 -12 0 -15 -7 -12 -29 3 -23 1 -27 -14
-23 -12 3 -18 -1 -18 -12 0 -9 -4 -16 -10 -16 -5 0 -10 -13 -10 -30 0 -20 -5
-30 -15 -30 -10 0 -15 -10 -15 -30 0 -20 -5 -30 -15 -30 -9 0 -15 -9 -15 -25
0 -16 -6 -25 -15 -25 -10 0 -15 -10 -15 -30 0 -19 -5 -30 -14 -30 -8 0 -16
-14 -20 -32 -3 -18 -8 -50 -12 -70 -4 -23 -12 -38 -20 -38 -10 0 -14 -15 -14
-55 0 -42 -3 -55 -15 -55 -10 0 -15 -10 -15 -30 0 -20 5 -30 15 -30 8 0 15 7
15 15 0 8 7 15 15 15 10 0 15 10 15 26 0 30 33 64 62 64 10 0 18 5 18 10 0 6
7 10 15 10 9 0 18 7 21 15 4 8 14 15 24 15 10 0 20 7 24 15 4 11 21 15 61 15
30 0 55 4 55 8 0 10 103 8 143 -3 24 -6 27 -12 27 -46 0 -28 -4 -39 -15 -39
-13 0 -15 -27 -15 -185 0 -158 2 -185 15 -185 13 0 15 -23 14 -155 l-1 -155
-44 0 c-32 0 -44 -4 -44 -15 0 -8 -7 -15 -15 -15 -9 0 -15 -9 -15 -25 0 -25 1
-25 85 -25 84 0 85 0 85 25 0 16 6 25 15 25 8 0 15 7 15 15 0 10 10 15 30 15
26 0 30 -3 30 -29 0 -16 6 -32 13 -35 10 -5 10 -7 0 -12 -7 -3 -13 -12 -13
-20 0 -10 -13 -14 -45 -14 -33 0 -45 -4 -45 -15 0 -11 12 -15 45 -15 33 0 45
4 45 15 0 8 5 15 10 15 6 0 10 7 10 15 0 12 15 15 75 15 73 0 75 1 75 25 0 16
-6 25 -15 25 -8 0 -15 7 -15 15 0 11 -12 15 -45 15 -33 0 -45 4 -45 15 0 8 6
15 13 15 9 0 13 21 15 70 3 58 1 70 -12 70 -13 0 -16 13 -16 70 0 40 4 70 10
70 6 0 10 7 10 15 0 8 -4 15 -10 15 -14 0 -12 27 3 33 9 4 9 7 0 14 -9 6 -12
42 -11 121 l2 112 43 0 c29 0 43 4 43 13 0 15 54 67 69 67 5 0 14 7 21 15 7 8
21 15 30 15 10 0 20 5 22 11 10 31 343 34 355 3 6 -17 60 -19 65 -2 3 9 6 9
12 0 4 -7 2 -12 -3 -12 -6 0 -11 -7 -11 -15 0 -8 7 -15 15 -15 8 0 15 -4 15
-10 0 -5 7 -10 15 -10 8 0 21 -13 30 -30 11 -22 23 -30 41 -30 21 0 25 4 21
19 -3 14 0 17 14 14 13 -4 19 0 19 11 0 9 7 16 16 16 10 0 14 6 11 14 -4 10
-1 13 9 9 7 -3 14 -1 14 5 0 5 12 13 27 17 15 3 31 11 34 17 4 6 30 13 58 16
42 4 51 2 51 -12 0 -9 8 -16 20 -16 11 0 23 -7 26 -15 4 -8 15 -15 25 -15 10
0 19 7 19 15 0 8 -7 15 -15 15 -8 0 -15 7 -15 15 0 8 -7 15 -15 15 -8 0 -15 7
-15 15 0 12 8 14 43 9 23 -4 50 -11 59 -15 9 -5 35 -9 57 -9 40 0 41 1 41 35
0 22 -6 38 -15 41 -9 4 -15 19 -15 39 0 19 -7 40 -15 49 -8 8 -15 24 -15 35 0
12 -6 21 -15 21 -8 0 -15 7 -15 15 0 20 -10 19 -36 -6 -27 -26 -44 -18 -44 22
0 19 5 29 15 29 9 0 15 -9 15 -21 0 -30 24 -18 28 14 2 18 -2 29 -12 33 -9 3
-16 12 -16 20 0 8 -7 14 -15 14 -8 0 -15 7 -15 15 0 8 -7 15 -15 15 -8 0 -15
5 -15 11 0 6 -9 9 -19 6 -13 -3 -18 -1 -15 8 8 19 -27 55 -53 55 -14 0 -23 6
-23 15 0 10 -10 15 -28 15 -15 0 -38 7 -50 16 -13 9 -34 14 -47 11 -14 -2 -22
-1 -20 3 7 11 -32 20 -87 20 -36 0 -48 4 -48 15 0 12 -13 15 -55 15 -42 0 -55
4 -55 15 0 8 11 17 25 21 14 3 25 11 25 16 0 15 272 6 278 -9 2 -8 21 -13 48
-13 32 0 44 -4 44 -15 0 -9 9 -15 24 -15 13 0 29 -7 36 -15 7 -8 21 -15 31
-15 10 0 21 -4 24 -10 3 -5 17 -10 31 -10 13 0 24 -4 24 -10 0 -17 39 -50 60
-50 11 0 20 7 20 15 0 8 7 15 16 15 9 0 12 -5 8 -12 -5 -7 -2 -9 9 -5 11 4 14
2 11 -7 -3 -8 -14 -12 -25 -9 -13 4 -19 0 -19 -11 0 -9 7 -16 15 -16 8 0 15
-7 15 -15 0 -8 6 -15 14 -15 22 0 28 18 10 28 -15 8 -15 11 1 36 10 14 21 26
26 26 5 0 9 7 9 15 0 8 -6 15 -13 15 -7 0 -21 11 -31 25 -10 14 -25 25 -32 25
-8 0 -14 7 -14 15 0 8 -6 15 -14 15 -8 0 -16 -7 -20 -15 -4 -10 1 -15 14 -15
26 0 26 -26 1 -40 -28 -14 -41 -12 -35 5 4 8 1 15 -6 15 -6 0 -8 5 -4 11 4 7
1 10 -7 7 -8 -3 -13 -11 -11 -17 1 -6 -5 -11 -13 -11 -8 0 -15 4 -15 8 0 10
56 52 70 52 17 0 11 27 -7 34 -10 3 -26 11 -36 18 -14 11 -19 10 -28 -2 -8
-12 -9 -10 -4 8 6 19 3 22 -22 22 -16 0 -34 -5 -40 -11 -8 -8 -17 -8 -32 0
-11 6 -34 10 -50 9 -24 -2 -28 -5 -19 -16 7 -7 20 -11 30 -8 12 3 18 0 15 -7
-2 -7 -20 -13 -39 -15 -35 -3 -36 -2 -35 30 2 39 12 48 55 48 22 0 32 -5 32
-15 0 -9 9 -15 25 -15 16 0 25 6 25 15 0 8 -7 15 -16 15 -9 0 -14 5 -12 11 2
6 6 10 8 9 3 -1 17 3 31 9 24 9 26 8 22 -10 -5 -16 0 -19 36 -19 30 0 41 -4
41 -15 0 -11 11 -15 43 -15 52 0 67 13 67 57 0 26 4 33 20 33 11 0 20 -7 20
-15 0 -9 10 -15 26 -15 18 0 25 -5 23 -17 -3 -32 1 -44 11 -38 6 3 10 2 10 -3
0 -6 9 -8 19 -5 13 3 21 -2 26 -17 6 -18 9 -20 16 -9 7 11 9 10 9 -3 0 -12 8
-18 25 -18 16 0 25 6 25 15 0 8 -7 15 -15 15 -8 0 -15 5 -15 10 0 6 -9 10 -20
10 -11 0 -23 7 -26 15 -4 8 -12 15 -20 15 -9 0 -14 11 -14 30 0 20 5 30 15 30
8 0 15 -7 15 -15 0 -10 10 -15 29 -15 16 0 36 -6 43 -12 24 -23 86 -50 97 -44
7 4 8 1 5 -8 -5 -12 0 -16 19 -16 14 0 27 6 30 13 2 7 8 8 13 3 5 -5 4 -11 -3
-13 -18 -6 -16 -33 1 -33 8 0 16 4 18 9 2 4 14 11 28 15 14 3 19 3 13 0 -7 -3
-13 -10 -13 -15 0 -6 5 -7 12 -3 8 5 9 2 3 -12 -18 -44 -17 -65 3 -85 28 -26
42 -24 42 6 0 16 -6 25 -16 25 -8 0 -12 4 -9 10 6 10 53 -14 67 -35 11 -14 10
-1 -2 29 -9 24 -7 26 15 26 21 0 25 -5 25 -30 0 -20 5 -30 15 -30 22 0 22
-175 -1 -197 -14 -15 -15 -12 -13 33 3 40 0 49 -14 52 -9 2 -17 10 -17 18 0 9
5 12 12 8 8 -5 9 -2 5 10 -5 12 0 19 15 25 14 5 18 10 10 15 -7 4 -9 13 -5 19
4 7 0 6 -10 -2 -11 -9 -17 -10 -17 -2 0 16 -17 13 -24 -5 -3 -8 -2 -12 3 -9 5
3 12 2 15 -3 2 -4 -4 -9 -15 -9 -13 -1 -19 5 -19 18 0 11 -4 17 -10 14 -15
-10 -13 -68 3 -62 9 3 12 -5 9 -29 -3 -26 0 -34 11 -34 8 0 17 5 19 12 3 9 6
9 12 0 4 -7 2 -12 -3 -12 -6 0 -11 -18 -11 -40 0 -29 4 -40 15 -40 12 0 15
-19 15 -115 0 -96 3 -115 15 -115 12 0 15 13 15 60 0 47 3 60 15 60 13 0 15
24 15 155 0 97 4 155 10 155 6 0 10 11 10 25 0 14 -4 25 -10 25 -16 0 -12 37
5 44 9 3 15 0 15 -9 0 -7 7 -20 15 -29 14 -14 14 -17 -5 -36 -25 -25 -24 -76
0 -74 12 1 15 -7 12 -32 -3 -26 0 -34 12 -34 12 0 16 -10 16 -41 0 -40 1 -41
28 -35 15 3 21 3 15 0 -10 -4 -13 -39 -13 -126 0 -93 -3 -123 -15 -134 -8 -9
-15 -31 -15 -50 0 -24 -5 -34 -15 -34 -8 0 -15 -7 -15 -15 0 -8 7 -15 15 -15
8 0 15 7 15 15 0 8 7 15 15 15 8 0 15 7 15 15 0 8 7 15 15 15 10 0 15 10 15
30 0 17 5 30 10 30 6 0 10 18 10 40 0 22 -5 40 -10 40 -6 0 -10 28 -9 71 1 57
4 69 16 65 8 -3 19 -6 24 -6 5 0 9 -4 9 -9 0 -5 -8 -7 -17 -5 -16 5 -18 -2
-15 -55 3 -44 8 -61 18 -61 10 0 14 12 14 39 0 37 2 40 32 43 24 2 32 8 35 27
5 35 13 39 13 8 0 -14 -5 -29 -10 -32 -6 -4 -10 -58 -10 -131 0 -104 -2 -124
-15 -124 -12 0 -15 -13 -15 -55 0 -42 3 -55 15 -55 8 0 15 6 15 14 0 8 7 16
15 20 9 3 15 18 15 40 0 25 5 35 19 39 25 6 31 0 31 -30 0 -14 6 -23 15 -23 8
0 15 5 15 10 0 6 7 10 15 10 18 0 20 26 3 33 -7 3 4 3 26 0 27 -4 41 -2 47 8
9 16 222 39 242 27 7 -4 28 -8 48 -8 20 0 42 -7 49 -15 7 -8 20 -15 30 -15 10
0 20 -7 24 -15 3 -8 15 -15 26 -15 23 0 50 -22 50 -39 0 -6 6 -11 13 -11 14 0
47 -35 47 -51 0 -6 8 -9 18 -7 9 2 17 9 16 16 -1 6 -2 30 -2 52 -2 28 -6 40
-17 40 -11 0 -15 12 -15 45 0 33 -4 45 -15 45 -9 0 -15 9 -15 25 0 16 -6 25
-15 25 -10 0 -15 10 -15 30 0 17 -4 30 -10 30 -5 0 -10 13 -10 29 0 16 -6 31
-15 35 -8 3 -15 13 -15 21 0 9 -7 23 -15 31 -8 9 -15 25 -15 36 0 15 -5 19
-18 16 -15 -4 -17 0 -14 29 3 24 0 33 -10 33 -15 0 -38 40 -38 65 0 8 -7 15
-15 15 -8 0 -15 7 -15 15 0 8 -7 15 -15 15 -8 0 -15 6 -15 14 0 8 -7 16 -15
20 -8 3 -15 15 -15 26 0 11 -7 20 -15 20 -8 0 -15 7 -15 15 0 8 -7 15 -15 15
-8 0 -15 7 -15 16 0 10 -6 14 -14 11 -10 -4 -12 0 -9 14 4 13 0 19 -11 19 -9
0 -16 5 -16 11 0 7 -11 9 -27 5 -16 -3 -22 -3 -15 0 17 8 15 34 -3 34 -8 0
-15 7 -15 16 0 11 -6 15 -19 11 -15 -3 -17 0 -13 16 4 15 1 19 -10 14 -12 -4
-14 -1 -10 15 4 17 1 20 -15 16 -16 -4 -19 -2 -16 13 4 13 0 19 -11 19 -9 0
-16 5 -16 10 0 6 -9 10 -19 10 -11 0 -27 7 -35 16 -9 8 -20 13 -25 10 -5 -3
-7 3 -4 14 4 13 0 20 -10 20 -8 0 -17 7 -21 15 -7 18 -52 20 -60 3 -3 -7 -3
-1 0 15 5 20 2 27 -10 27 -9 0 -16 5 -16 10 0 6 -11 10 -25 10 -16 0 -25 6
-25 15 0 10 -10 15 -30 15 -20 0 -30 5 -30 15 0 9 -9 15 -25 15 -13 0 -28 6
-32 13 -14 21 -61 47 -88 47 -14 0 -25 5 -25 10 0 6 -13 10 -29 10 -16 0 -36
7 -45 15 -8 8 -26 15 -40 15 -16 0 -26 6 -26 15 0 12 -13 15 -55 15 -42 0 -55
3 -55 15 0 11 -12 15 -51 15 -31 0 -56 6 -65 15 -12 11 -40 15 -120 15 -63 0
-104 4 -104 10 0 6 -41 10 -104 10 -59 0 -108 -4 -111 -10z m-9 -49 c-2 -3 47
-6 109 -6 62 0 111 3 108 8 -2 4 19 7 47 7 48 0 50 -1 35 -16 -13 -14 -36 -17
-116 -16 -59 1 -99 -2 -99 -8 0 -14 -78 -12 -82 2 -3 7 -23 11 -55 9 -34 -1
-54 3 -62 13 -11 13 -3 15 53 14 36 -1 64 -4 62 -7z m357 2 c-7 -2 -19 -2 -25
0 -7 3 -2 5 12 5 14 0 19 -2 13 -5z m-547 -48 c4 -14 4 -29 0 -32 -3 -4 -6 1
-6 10 0 13 -10 17 -45 17 -33 0 -45 4 -45 15 0 11 12 15 45 15 39 0 45 -3 51
-25z m59 15 c3 -5 -1 -10 -10 -10 -9 0 -13 5 -10 10 3 6 8 10 10 10 2 0 7 -4
10 -10z m629 -4 c-6 -16 -81 -19 -91 -3 -3 6 -1 7 5 3 7 -4 12 -2 12 3 0 6 18
11 40 11 29 0 38 -4 34 -14z m-565 -28 c-1 -16 -3 -18 -6 -6 -2 9 -14 19 -26
21 -18 4 -17 5 6 6 22 1 27 -3 26 -21z m-211 -4 c4 -4 -1 -4 -10 -1 -10 4 -18
2 -18 -3 0 -6 -20 -9 -45 -8 -31 1 -45 6 -45 15 0 11 12 13 56 9 31 -2 59 -8
62 -12z m887 6 c-3 -5 -13 -6 -22 -3 -11 4 -14 3 -9 -5 5 -8 -1 -11 -18 -10
-26 2 -32 9 -19 21 10 11 75 8 68 -3z m-225 -10 c0 -5 -4 -10 -10 -10 -5 0
-10 5 -10 10 0 6 5 10 10 10 6 0 10 -4 10 -10z m-815 -20 c8 -13 -15 -13 -35
0 -12 8 -11 10 7 10 12 0 25 -4 28 -10z m1135 -6 c0 -8 -4 -12 -10 -9 -5 3
-10 10 -10 16 0 5 5 9 10 9 6 0 10 -7 10 -16z m-52 -19 c-3 -3 -9 2 -12 12 -6
14 -5 15 5 6 7 -7 10 -15 7 -18z m-1160 -18 c2 -19 -1 -27 -12 -27 -10 0 -16
9 -17 23 0 21 -1 21 -9 2 -9 -22 -9 -21 -16 13 -3 20 0 22 24 19 21 -3 28 -10
30 -30z m1112 23 c0 -5 -9 -10 -20 -10 -11 0 -20 5 -20 10 0 6 9 10 20 10 11
0 20 -4 20 -10z m163 -7 c-6 -15 -39 -18 -47 -4 -8 13 4 21 29 19 14 -1 21 -7
18 -15z m-1363 -38 c0 -14 5 -25 11 -25 8 0 8 -5 -1 -15 -7 -8 -22 -14 -34
-14 -20 2 -20 2 2 6 12 2 22 9 22 14 0 15 -39 10 -67 -8 -26 -17 -27 -17 -20
0 4 10 7 23 7 28 0 4 14 6 30 3 26 -6 30 -4 30 15 0 11 5 21 10 21 6 0 10 -11
10 -25z m1443 4 c5 -17 11 -20 31 -15 19 5 26 2 26 -9 0 -14 11 -19 38 -16 6
1 12 -7 12 -17 0 -15 6 -18 33 -15 30 3 30 2 10 -8 -13 -7 -23 -16 -23 -21 0
-4 -9 1 -20 12 -11 11 -26 20 -34 20 -8 0 -16 7 -20 15 -3 8 -17 15 -31 15
-14 0 -25 5 -25 10 0 6 -8 10 -17 10 -26 0 -47 16 -39 29 13 20 53 13 59 -10z
m-1293 -49 c-19 -13 -30 -13 -30 0 0 6 10 10 23 10 18 0 19 -2 7 -10z m1150
-10 c0 -5 -4 -10 -10 -10 -5 0 -10 5 -10 10 0 6 5 10 10 10 6 0 10 -4 10 -10z
m-1460 -20 c0 -5 -4 -10 -9 -10 -6 0 -13 5 -16 10 -3 6 1 10 9 10 9 0 16 -4
16 -10z m1590 0 c13 -8 13 -10 -2 -10 -9 0 -20 5 -23 10 -8 13 5 13 25 0z
m-1527 -18 c-15 -2 -23 -10 -23 -24 0 -19 -21 -21 -27 -2 -4 13 49 44 62 36 5
-4 0 -8 -12 -10z m150 -45 c-10 -17 -20 4 -15 30 l6 28 6 -25 c4 -14 5 -28 3
-33z m1607 43 c0 -12 -36 -31 -43 -24 -3 3 -4 11 -1 18 5 14 44 19 44 6z
m-1920 -24 c0 -9 -30 -14 -35 -6 -4 6 3 10 14 10 12 0 21 -2 21 -4z m75 -16
c4 -7 -3 -8 -22 -4 -38 9 -42 14 -10 14 14 0 29 -5 32 -10z m1298 3 c-7 -2
-19 -2 -25 0 -7 3 -2 5 12 5 14 0 19 -2 13 -5z m267 -8 c0 -8 -2 -15 -4 -15
-2 0 -6 7 -10 15 -3 8 -1 15 4 15 6 0 10 -7 10 -15z m310 6 c0 -17 -18 -21
-24 -6 -3 9 0 15 9 15 8 0 15 -4 15 -9z m-1997 -17 c3 -3 3 -13 0 -21 -5 -12
-7 -12 -14 -1 -15 23 -4 40 14 22z m2055 -5 c-2 -6 -8 -10 -13 -10 -5 0 -11 4
-13 10 -2 6 4 11 13 11 9 0 15 -5 13 -11z m-1635 -6 c-7 -2 -19 -2 -25 0 -7 3
-2 5 12 5 14 0 19 -2 13 -5z m1067 -29 c0 -14 -4 -23 -10 -19 -5 3 -10 15 -10
26 0 10 5 19 10 19 6 0 10 -12 10 -26z m-1510 -3 c0 -23 -30 -32 -68 -21 l-27
8 33 1 c21 1 32 6 32 16 0 8 7 15 15 15 8 0 15 -8 15 -19z m2126 -11 c8 0 14
-6 14 -13 0 -9 -10 -12 -30 -9 -21 3 -30 10 -30 22 0 22 24 33 28 13 2 -7 10
-13 18 -13z m-1206 10 c0 -5 -10 -10 -23 -10 -13 0 -28 -5 -35 -12 -13 -13
-15 -8 -6 16 7 18 64 23 64 6z m1143 -10 c-3 -12 -8 -19 -11 -16 -5 6 5 36 12
36 2 0 2 -9 -1 -20z m-1113 -10 c0 -5 -4 -10 -10 -10 -5 0 -10 5 -10 10 0 6 5
10 10 10 6 0 10 -4 10 -10z m390 -12 c0 -16 -3 -19 -8 -10 -9 13 -42 6 -42 -9
0 -5 -9 -9 -20 -9 -28 0 -26 30 3 31 21 1 21 1 -3 9 -20 7 -16 8 23 9 42 1 47
-1 47 -21z m270 -3 c0 -18 -5 -25 -20 -25 -11 0 -20 7 -20 15 0 9 -9 15 -25
15 -14 0 -25 5 -25 10 0 6 20 10 45 10 41 0 45 -2 45 -25z m-1690 -15 c11 -11
27 -20 35 -20 8 0 15 -4 15 -10 0 -5 -9 -10 -20 -10 -11 0 -20 5 -20 10 0 14
-34 12 -48 -2 -10 -10 -15 -10 -22 2 -7 11 -5 16 5 18 8 2 15 10 15 18 0 20
17 17 40 -6z m890 5 c0 -8 -9 -15 -20 -15 -13 0 -18 5 -14 15 4 8 12 15 20 15
8 0 14 -7 14 -15z m1378 4 c-2 -6 -8 -10 -13 -10 -5 0 -11 4 -13 10 -2 6 4 11
13 11 9 0 15 -5 13 -11z m-1282 -29 c13 0 24 -4 24 -10 0 -5 -13 -10 -30 -10
-20 0 -30 -5 -30 -15 0 -8 -4 -15 -10 -15 -5 0 -10 7 -10 15 0 8 5 15 10 15 6
0 10 10 11 23 0 12 3 16 6 10 2 -7 16 -13 29 -13z m74 -2 c0 -10 -7 -18 -15
-18 -8 0 -15 8 -15 18 0 10 7 19 15 19 8 0 15 -9 15 -19z m80 3 c0 -10 7 -22
16 -25 8 -3 12 -10 9 -16 -10 -16 -45 -12 -45 5 0 8 -7 15 -15 15 -8 0 -15 9
-15 20 0 15 7 20 25 20 18 0 25 -5 25 -19z m450 -1 c0 -11 -4 -20 -10 -20 -5
0 -10 9 -10 20 0 11 5 20 10 20 6 0 10 -9 10 -20z m706 -5 c-4 -10 1 -15 14
-15 11 0 20 -7 20 -15 0 -8 7 -15 15 -15 8 0 15 -9 15 -21 0 -11 5 -17 10 -14
6 3 10 1 10 -4 0 -14 -6 -14 -31 -1 -10 6 -19 17 -19 25 0 8 -9 15 -21 15 -11
0 -17 5 -14 10 3 6 2 10 -3 10 -10 0 -33 -24 -29 -31 1 -2 -4 2 -10 10 -17 20
-16 31 2 31 8 0 15 7 15 15 0 8 7 15 16 15 10 0 14 -6 10 -15z m-816 -5 c0 -5
-4 -10 -10 -10 -5 0 -10 5 -10 10 0 6 5 10 10 10 6 0 10 -4 10 -10z m78 -22
c-5 -15 -48 -24 -48 -10 0 14 12 22 33 22 10 0 17 -5 15 -12z m632 2 c0 -5 -4
-10 -10 -10 -5 0 -10 5 -10 10 0 6 5 10 10 10 6 0 10 -4 10 -10z m-2290 -50
c0 -11 -7 -20 -15 -20 -18 0 -19 6 -2 25 16 19 17 18 17 -5z m1330 10 c0 -5
-9 -10 -21 -10 -11 0 -17 5 -14 10 3 6 13 10 21 10 8 0 14 -4 14 -10z m370 0
c0 -5 -7 -10 -16 -10 -8 0 -12 5 -9 10 3 6 10 10 16 10 5 0 9 -4 9 -10z m-860
-30 c-20 -6 -14 -8 28 -9 28 -1 52 -6 52 -11 0 -6 -31 -10 -75 -9 -41 1 -75 5
-75 10 0 5 9 9 19 9 11 0 23 5 26 10 3 6 16 10 28 9 20 -1 20 -2 -3 -9z m118
-2 c7 -7 12 -17 12 -22 0 -8 -3 -8 -8 -1 -4 6 -18 16 -32 22 -22 10 -23 12 -4
12 11 1 25 -4 32 -11z m-521 -60 c-2 -13 -4 -3 -4 22 0 25 2 35 4 23 2 -13 2
-33 0 -45z m283 53 c0 -11 -38 -21 -56 -14 -26 10 -14 23 21 23 19 0 35 -4 35
-9z m1149 5 c-12 -10 -59 -15 -59 -6 0 5 14 10 32 10 17 0 29 -2 27 -4z m208
-28 c-3 -7 -5 -2 -5 12 0 14 2 19 5 13 2 -7 2 -19 0 -25z m-2127 18 c0 -2 -8
-10 -17 -17 -16 -13 -17 -12 -4 4 13 16 21 21 21 13z m2280 -6 c0 -5 -9 -10
-20 -10 -11 0 -20 5 -20 10 0 6 9 10 20 10 11 0 20 -4 20 -10z m280 0 c0 -5
-7 -10 -15 -10 -8 0 -15 5 -15 10 0 6 7 10 15 10 8 0 15 -4 15 -10z m-2600
-25 c0 -8 -5 -15 -11 -15 -5 0 -7 5 -3 12 5 8 2 9 -9 5 -10 -3 -17 -2 -17 3 0
6 9 10 20 10 11 0 20 -7 20 -15z m1287 0 c0 -8 -6 -16 -14 -19 -7 -3 -13 -13
-13 -21 0 -9 5 -13 10 -10 6 3 10 -1 10 -9 0 -9 -7 -16 -15 -16 -8 0 -15 7
-15 15 0 9 -9 15 -25 15 -21 0 -25 4 -24 28 2 24 2 24 6 4 5 -26 37 -27 39 -2
2 27 4 30 22 30 10 0 19 -7 19 -15z m803 0 c0 -9 -9 -15 -25 -15 -26 0 -34 15
-12 23 23 10 37 7 37 -8z m540 0 c0 -8 7 -15 15 -15 17 0 19 -9 6 -29 -6 -9
-11 -10 -15 -2 -4 6 -11 9 -16 6 -5 -3 -11 -1 -15 5 -3 5 -2 10 4 10 5 0 8 9
6 20 -2 11 0 20 6 20 5 0 9 -7 9 -15z m-1860 -7 c0 -4 -11 -8 -25 -8 -14 0
-25 4 -25 10 0 5 11 9 25 8 14 -1 25 -6 25 -10z m1477 -20 c-3 -7 -5 -2 -5 12
0 14 2 19 5 13 2 -7 2 -19 0 -25z m-2265 -28 c-38 -24 -52 -25 -52 -6 0 15 19
23 60 25 24 1 23 0 -8 -19z m1348 10 c0 -5 -10 -10 -22 -9 -22 0 -22 1 -3 9
11 5 21 9 23 9 1 1 2 -3 2 -9z m1358 -12 c-6 -18 -28 -21 -28 -4 0 9 7 16 16
16 9 0 14 -5 12 -12z m-2697 -46 c7 -18 5 -22 -11 -22 -23 0 -34 15 -26 36 8
21 27 13 37 -14z m89 13 c0 -8 -9 -15 -20 -15 -11 0 -20 7 -20 15 0 8 9 15 20
15 11 0 20 -7 20 -15z m640 1 c0 -8 -4 -18 -10 -21 -5 -3 -10 -4 -10 -1 0 2
-3 11 -6 20 -4 11 -1 16 10 16 9 0 16 -6 16 -14z m1540 4 c0 -5 -4 -10 -10
-10 -5 0 -10 5 -10 10 0 6 5 10 10 10 6 0 10 -4 10 -10z m363 3 c-13 -2 -33
-2 -45 0 -13 2 -3 4 22 4 25 0 35 -2 23 -4z m87 -7 c0 -8 -6 -16 -14 -19 -10
-4 -12 0 -9 14 6 22 23 26 23 5z m-2790 -28 c0 -4 -11 -8 -25 -8 -16 0 -25 -6
-25 -15 0 -8 -4 -15 -10 -15 -14 0 -13 18 3 35 12 14 57 17 57 3z m880 1 c0
-5 -18 -9 -40 -9 -22 0 -40 4 -40 9 0 4 18 8 40 8 22 0 40 -4 40 -8z m1957
-42 c13 5 15 2 10 -16 -5 -19 -2 -22 14 -18 10 3 19 1 19 -4 0 -11 -7 -11 -49
-3 -33 7 -38 23 -23 74 7 24 7 24 10 -7 2 -25 7 -30 19 -26z m-2717 23 c0 -14
7 -20 22 -20 12 0 19 -3 15 -6 -3 -3 -19 -3 -36 1 -22 5 -31 12 -31 26 0 10 7
19 15 19 8 0 15 -9 15 -20z m1390 8 c0 6 5 12 12 12 6 0 3 -9 -7 -20 -26 -28
-50 -27 -34 1 9 17 13 19 20 8 6 -10 9 -11 9 -1z m817 -35 c-3 -10 -5 -2 -5
17 0 19 2 27 5 18 2 -10 2 -26 0 -35z m-1277 22 c0 -11 -12 -15 -45 -15 -35 0
-43 3 -39 15 4 10 20 15 45 15 28 0 39 -4 39 -15z m-1040 -28 c-14 -6 -31 -17
-38 -24 -21 -21 -24 -15 -6 12 11 17 25 25 43 24 l26 0 -25 -12z m1120 -2 c0
-9 -9 -15 -25 -15 -24 0 -32 10 -18 23 12 13 43 7 43 -8z m-1200 -39 c0 -3 -7
-3 -15 0 -8 4 -15 13 -15 21 0 12 2 12 15 -1 8 -8 15 -17 15 -20z m1104 28
c18 -7 12 -24 -10 -24 -8 0 -14 7 -14 15 0 17 2 18 24 9z m156 -26 c0 -17 -3
-19 -9 -9 -7 11 -9 11 -14 0 -3 -8 -6 -4 -6 9 -1 13 5 22 14 22 9 0 15 -9 15
-22z m1116 7 c-8 -8 -17 -15 -20 -15 -3 0 -6 7 -6 15 0 9 9 15 21 15 18 0 19
-2 5 -15z m-2073 -2 c-7 -2 -21 -2 -30 0 -10 3 -4 5 12 5 17 0 24 -2 18 -5z
m-333 -28 c0 -8 5 -15 10 -15 6 0 10 -4 10 -10 0 -6 -9 -6 -22 -1 -27 10 -37
41 -14 41 9 0 16 -7 16 -15z m380 0 c0 -8 -4 -15 -10 -15 -5 0 -10 7 -10 15 0
8 5 15 10 15 6 0 10 -7 10 -15z m834 0 c11 -8 15 -15 10 -15 -6 0 -19 7 -30
15 -10 8 -14 14 -9 14 6 0 19 -6 29 -14z m1791 -16 c-5 -20 -4 -29 3 -25 5 3
13 -1 16 -10 6 -15 4 -15 -18 0 -14 9 -34 16 -46 16 -11 0 -20 5 -20 10 0 6 9
10 20 10 11 0 20 7 20 15 0 8 7 15 16 15 12 0 14 -7 9 -31z m-282 4 c-13 -2
-33 -2 -45 0 -13 2 -3 4 22 4 25 0 35 -2 23 -4z m-2761 -18 c0 -5 -5 -11 -11
-13 -6 -2 -11 4 -11 13 0 9 5 15 11 13 6 -2 11 -8 11 -13z m1358 1 c0 -8 -4
-18 -10 -21 -5 -3 -10 3 -10 14 0 12 5 21 10 21 6 0 10 -6 10 -14z m58 2 c-2
-6 -10 -14 -16 -16 -7 -2 -10 2 -6 12 7 18 28 22 22 4z m-992 -23 c4 -8 12
-15 20 -15 10 0 13 -7 8 -25 -4 -16 -2 -25 6 -25 7 0 10 7 6 15 -3 8 -1 15 4
15 6 0 10 -9 10 -20 0 -11 -4 -20 -9 -20 -5 0 -8 -49 -7 -110 1 -81 4 -110 13
-110 20 0 15 -21 -6 -27 -11 -3 -22 -15 -25 -26 -8 -32 -7 -49 3 -43 5 3 12
-4 15 -17 l7 -22 16 23 c18 26 30 28 30 7 0 -8 -6 -15 -14 -15 -7 0 -13 -4
-13 -10 0 -5 -13 -10 -30 -10 -16 0 -30 5 -30 10 0 6 -7 10 -15 10 -8 0 -15 7
-15 15 0 8 -7 15 -15 15 -8 0 -15 7 -15 15 0 8 7 15 15 15 8 0 15 7 15 16 0
11 6 15 18 12 16 -5 17 7 14 154 l-3 158 -29 0 c-20 0 -30 -5 -30 -15 0 -8 -4
-15 -10 -15 -5 0 -10 -7 -10 -15 0 -8 -7 -15 -15 -15 -8 0 -15 -7 -15 -15 0
-8 -7 -15 -15 -15 -9 0 -15 -9 -15 -25 0 -16 -6 -25 -15 -25 -8 0 -15 -7 -15
-15 0 -8 -7 -15 -15 -15 -10 0 -15 -10 -15 -30 0 -16 -4 -30 -10 -30 -5 0 -10
-11 -10 -25 0 -26 -14 -32 -40 -15 -10 6 -11 10 -2 10 6 0 12 6 12 14 0 8 7
17 16 20 17 7 14 30 -4 32 -7 1 -15 2 -18 3 -3 0 8 13 25 27 17 14 31 34 31
45 0 10 7 19 15 19 8 0 15 9 15 20 0 11 5 19 12 18 7 -2 17 7 23 20 5 12 18
22 28 22 14 0 17 5 12 19 -5 17 -1 20 25 19 17 -1 33 2 37 5 11 11 23 8 29 -8z
m2054 -5 c0 -5 -12 -10 -26 -10 -14 0 -23 4 -19 10 3 6 15 10 26 10 10 0 19
-4 19 -10z m200 6 c0 -3 -4 -8 -10 -11 -5 -3 -10 -1 -10 4 0 6 5 11 10 11 6 0
10 -2 10 -4z m-2694 -30 c15 -16 19 -46 6 -46 -4 0 -16 14 -25 30 -19 32 -7
42 19 16z m1484 6 c0 -15 -11 -21 -27 -15 -12 5 -12 7 -1 14 17 11 28 11 28 1z
m1134 -1 c3 -5 -3 -11 -13 -14 -14 -3 -18 -1 -14 9 6 16 19 18 27 5z m496 -5
c0 -18 -16 -29 -30 -21 -6 4 -5 11 3 20 16 18 27 19 27 1z m-555 -8 c3 -3 -5
-5 -17 -4 -17 1 -22 -4 -20 -16 2 -11 -3 -18 -13 -18 -19 0 -19 14 0 33 14 15
38 17 50 5z m-2585 -18 c16 0 -6 -55 -23 -58 -20 -4 -23 27 -4 47 10 11 10 13
0 7 -7 -4 -13 -2 -13 4 0 7 7 9 16 6 9 -3 19 -6 24 -6z m1415 -22 c6 -4 0 -8
-12 -8 -16 0 -21 4 -16 15 3 9 8 12 12 8 3 -4 11 -11 16 -15z m105 -10 c0 -5
-12 -8 -26 -8 -21 0 -24 3 -15 13 6 8 7 17 3 22 -4 4 3 1 16 -6 12 -8 22 -17
22 -21z m1560 22 c0 -5 -4 -10 -10 -10 -5 0 -10 5 -10 10 0 6 5 10 10 10 6 0
10 -4 10 -10z m86 -25 c-1 -8 -8 -21 -14 -27 -9 -9 -12 -7 -12 8 0 12 3 24 7
27 11 12 21 8 19 -8z m-502 -21 c9 -24 2 -26 -12 -4 -7 11 -8 20 -3 20 5 0 12
-7 15 -16z m-2703 -30 c6 -7 1 -20 -11 -34 -11 -12 -17 -27 -14 -31 3 -5 0 -9
-5 -9 -6 0 -11 3 -12 8 0 4 -2 17 -5 30 -3 15 1 22 11 22 9 0 15 10 16 28 0
15 3 21 6 12 3 -8 10 -20 14 -26z m959 16 c0 -5 -4 -10 -10 -10 -5 0 -10 5
-10 10 0 6 5 10 10 10 6 0 10 -4 10 -10z m2140 0 c0 -12 -24 -12 -60 0 -21 7
-19 8 18 9 23 1 42 -3 42 -9z m-1521 -26 c26 -13 30 -18 20 -30 -10 -12 -14
-12 -20 -2 -5 7 -9 9 -9 4 0 -11 -29 25 -30 37 0 10 2 9 39 -9z m1181 6 c0 -5
-7 -10 -15 -10 -8 0 -15 5 -15 10 0 6 7 10 15 10 8 0 15 -4 15 -10z m480 0 c0
-5 -7 -10 -15 -10 -8 0 -15 5 -15 10 0 6 7 10 15 10 8 0 15 -4 15 -10z m-3147
-17 c-7 -2 -19 -2 -25 0 -7 3 -2 5 12 5 14 0 19 -2 13 -5z m54 -25 c-3 -7 -5
-2 -5 12 0 14 2 19 5 13 2 -7 2 -19 0 -25z m78 -27 c-3 -2 -5 2 -5 9 0 9 -7 7
-22 -6 -23 -19 -23 -19 -5 2 9 11 17 29 18 40 0 12 4 9 10 -10 4 -17 6 -32 4
-35z m508 52 c-7 -2 -19 -2 -25 0 -7 3 -2 5 12 5 14 0 19 -2 13 -5z m94 -25
c-3 -7 -5 -2 -5 12 0 14 2 19 5 13 2 -7 2 -19 0 -25z m383 12 c0 -11 -4 -20
-10 -20 -5 0 -10 9 -10 20 0 11 5 20 10 20 6 0 10 -9 10 -20z m1507 -12 c-3
-7 -5 -2 -5 12 0 14 2 19 5 13 2 -7 2 -19 0 -25z m110 0 c-3 -7 -5 -2 -5 12 0
14 2 19 5 13 2 -7 2 -19 0 -25z m381 13 c3 -8 -1 -12 -9 -9 -7 2 -15 10 -17
17 -3 8 1 12 9 9 7 -2 15 -10 17 -17z m-155 2 c-7 -2 -19 -2 -25 0 -7 3 -2 5
12 5 14 0 19 -2 13 -5z m217 -28 c0 -8 -2 -15 -4 -15 -2 0 -6 7 -10 15 -3 8
-1 15 4 15 6 0 10 -7 10 -15z m-2030 -5 c0 -5 -4 -10 -10 -10 -5 0 -10 5 -10
10 0 6 5 10 10 10 6 0 10 -4 10 -10z m280 6 c0 -3 -4 -8 -10 -11 -5 -3 -10 -1
-10 4 0 6 5 11 10 11 6 0 10 -2 10 -4z m1720 -41 c0 -19 -4 -35 -10 -35 -5 0
-10 16 -10 35 0 19 5 35 10 35 6 0 10 -16 10 -35z m-3285 15 c4 -6 10 -8 15
-5 5 3 11 1 15 -5 4 -6 -7 -10 -27 -11 -18 -1 -25 -3 -15 -6 9 -2 17 -9 17
-14 0 -6 -8 -9 -17 -7 -23 4 -31 58 -9 58 8 0 18 -5 21 -10z m640 0 c3 -5 -1
-10 -9 -10 -9 0 -16 5 -16 10 0 6 4 10 9 10 6 0 13 -4 16 -10z m99 1 c3 -4 -3
-16 -14 -26 -20 -18 -20 -17 -18 8 2 26 21 36 32 18z m994 -17 c1 -20 -5 -28
-33 -40 -42 -17 -75 -18 -75 -1 0 8 -3 7 -9 -2 -8 -12 -11 -9 -17 12 -8 35 1
45 26 29 28 -17 84 -16 77 2 -6 16 1 26 17 26 7 0 13 -11 14 -26z m1038 -52
c-10 -2 -16 -14 -16 -33 0 -46 -26 -36 -28 11 -3 36 0 40 20 40 l23 1 -22 18
c-13 11 -23 25 -23 31 0 7 14 -5 31 -26 25 -31 28 -40 15 -42z m-2543 51 c-7
-2 -21 -2 -30 0 -10 3 -4 5 12 5 17 0 24 -2 18 -5z m773 -41 c-12 -13 -18 -13
-28 -4 -9 9 -9 12 3 13 7 1 3 5 -11 9 -24 8 -24 8 -2 9 12 1 22 6 22 12 0 6 7
3 16 -6 16 -15 16 -18 0 -33z m-842 29 c9 -14 -19 -31 -58 -38 -24 -4 -36 -2
-36 6 0 6 9 11 20 11 11 0 20 4 20 9 0 8 15 15 42 20 4 0 9 -3 12 -8z m2928
-21 c41 0 33 -6 -19 -14 -38 -5 -43 -4 -43 13 0 22 23 34 28 14 2 -7 17 -13
34 -13z m249 21 c6 10 9 6 9 -13 0 -16 5 -28 10 -28 6 0 10 -6 9 -12 -5 -42 2
-78 16 -78 8 0 15 -7 15 -15 0 -8 -7 -15 -15 -15 -8 0 -15 7 -15 15 0 8 -4 15
-10 15 -5 0 -10 7 -10 15 0 13 -16 19 -45 16 -6 0 -11 9 -12 20 -2 20 -1 20
17 4 22 -20 40 -12 40 16 0 12 -7 19 -19 19 -15 0 -17 5 -13 28 3 15 7 21 10
13 4 -11 6 -11 13 0z m-2271 -10 c0 -5 -9 -11 -20 -14 -13 -3 -20 0 -20 9 0 8
9 14 20 14 11 0 20 -4 20 -9z m1760 -16 c0 -8 9 -20 20 -27 11 -7 20 -21 20
-31 0 -13 -7 -17 -30 -15 -24 2 -30 7 -30 26 0 13 -5 32 -10 43 -9 16 -7 19
10 19 11 0 20 -7 20 -15z m-2875 -5 c-4 -6 6 -10 22 -10 19 0 24 -3 14 -9 -20
-13 4 -24 37 -17 22 5 24 4 9 -4 -9 -6 -15 -15 -12 -21 4 -5 -1 -9 -10 -9 -8
0 -18 7 -21 15 -4 8 -13 15 -21 15 -9 0 -11 5 -7 13 5 8 2 8 -9 -2 -15 -12
-17 -11 -17 13 0 14 5 26 11 26 5 0 7 -4 4 -10z m300 0 c-7 -12 -55 -13 -73
-1 -8 5 5 8 33 9 29 2 44 -2 40 -8z m535 -15 c0 -17 -5 -25 -17 -25 -15 0 -16
2 -3 10 13 8 12 10 -2 10 -10 0 -18 7 -18 15 0 8 9 15 20 15 15 0 20 -7 20
-25z m143 18 c-7 -2 -19 -2 -25 0 -7 3 -2 5 12 5 14 0 19 -2 13 -5z m197 -3
c0 -5 -4 -10 -10 -10 -5 0 -10 5 -10 10 0 6 5 10 10 10 6 0 10 -4 10 -10z
m470 0 c0 -5 -7 -10 -15 -10 -8 0 -15 5 -15 10 0 6 7 10 15 10 8 0 15 -4 15
-10z m1290 6 c0 -3 -4 -8 -10 -11 -5 -3 -10 -1 -10 4 0 6 5 11 10 11 6 0 10
-2 10 -4z m342 -21 c4 -17 1 -25 -8 -25 -8 0 -14 11 -14 25 0 14 4 25 9 25 5
0 11 -11 13 -25z m-1821 -25 c8 0 16 -7 16 -15 0 -8 -7 -15 -14 -15 -8 0 -21
7 -29 15 -21 20 -31 19 -44 -5 -12 -22 -30 -18 -30 6 0 8 9 14 20 14 11 0 20
7 20 16 0 14 2 14 22 0 12 -9 30 -16 39 -16z m99 7 c8 -2 1 -5 -17 -4 -22 0
-30 4 -26 14 3 8 10 10 17 5 6 -5 18 -12 26 -15z m-1390 3 c11 -7 4 -10 -25
-10 -29 0 -36 3 -25 10 8 5 20 10 25 10 6 0 17 -5 25 -10z m985 0 c3 -5 -3
-10 -14 -10 -12 0 -21 5 -21 10 0 6 6 10 14 10 8 0 18 -4 21 -10z m-768 -6
c-3 -3 -12 -4 -19 -1 -8 3 -5 6 6 6 11 1 17 -2 13 -5z m388 -15 c4 -6 5 -13 1
-16 -8 -8 -56 6 -56 17 0 13 47 13 55 -1z m449 -4 c3 -9 0 -15 -9 -15 -8 0
-15 7 -15 15 0 8 4 15 9 15 5 0 11 -7 15 -15z m36 -4 c0 -5 12 -12 27 -16 21
-5 24 -8 12 -16 -21 -13 -39 -11 -39 6 0 8 -4 15 -10 15 -5 0 -10 5 -10 10 0
6 5 10 10 10 6 0 10 -4 10 -9z m-1242 -23 c-3 -7 -11 -13 -19 -13 -8 0 -13 -8
-13 -18 1 -9 -4 -17 -12 -17 -9 0 -14 11 -14 30 0 27 3 30 31 30 20 0 29 -4
27 -12z m702 -9 c0 -6 -4 -7 -10 -4 -5 3 -10 11 -10 16 0 6 5 7 10 4 6 -3 10
-11 10 -16z m708 -7 c-25 -5 -37 6 -19 18 8 5 19 3 26 -3 10 -10 9 -13 -7 -15z
m-678 8 c0 -5 -4 -10 -10 -10 -5 0 -10 5 -10 10 0 6 5 10 10 10 6 0 10 -4 10
-10z m625 -10 c-3 -5 1 -10 9 -10 9 0 16 -4 16 -10 0 -5 -7 -10 -15 -10 -8 0
-15 -4 -15 -10 0 -5 -7 -10 -15 -10 -9 0 -15 9 -14 23 0 12 3 16 6 10 8 -21
25 -14 18 7 -4 12 -2 20 5 20 6 0 8 -4 5 -10z m-55 -15 c0 -8 -6 -15 -13 -15
-8 0 -14 7 -14 15 0 8 6 15 14 15 7 0 13 -7 13 -15z m-680 -61 c0 -2 -7 -4
-15 -4 -8 0 -15 4 -15 10 0 5 7 7 15 4 8 -4 15 -8 15 -10z"/>
<path d="M853 4545 c0 -8 4 -12 9 -9 4 3 8 9 8 15 0 5 -4 9 -8 9 -5 0 -9 -7
-9 -15z"/>
<path d="M930 4530 c0 -20 -5 -30 -15 -30 -8 0 -15 7 -15 15 0 8 -7 15 -15 15
-8 0 -15 -7 -15 -15 0 -8 7 -15 15 -15 8 0 15 -7 15 -15 0 -8 7 -15 15 -15 8
0 15 7 15 15 0 8 7 15 15 15 8 0 15 -7 15 -15 0 -8 5 -15 10 -15 6 0 10 -7 10
-15 0 -8 7 -15 15 -15 8 0 15 7 15 15 0 8 -7 15 -15 15 -8 0 -15 7 -15 15 0 8
-4 15 -10 15 -5 0 -10 14 -10 30 0 20 -5 30 -15 30 -10 0 -15 -10 -15 -30z"/>
<path d="M1040 4545 c0 -8 7 -15 15 -15 8 0 15 7 15 15 0 8 -7 15 -15 15 -8 0
-15 -7 -15 -15z"/>
<path d="M1430 4545 c0 -8 7 -15 15 -15 8 0 15 7 15 15 0 8 -7 15 -15 15 -8 0
-15 -7 -15 -15z"/>
<path d="M1600 4545 c0 -8 -4 -15 -10 -15 -5 0 -10 -13 -10 -30 0 -16 5 -30
10 -30 6 0 10 9 10 19 0 11 7 26 15 35 8 8 15 19 15 25 0 6 -7 11 -15 11 -8 0
-15 -7 -15 -15z"/>
<path d="M1520 4500 c0 -20 -5 -30 -15 -30 -8 0 -15 -7 -15 -15 0 -8 7 -15 15
-15 8 0 15 7 15 15 0 8 7 15 15 15 10 0 15 10 15 30 0 20 -5 30 -15 30 -10 0
-15 -10 -15 -30z"/>
<path d="M1070 4485 c0 -8 7 -15 15 -15 8 0 15 7 15 15 0 8 -7 15 -15 15 -8 0
-15 -7 -15 -15z"/>
<path d="M1410 4485 c0 -8 5 -15 10 -15 6 0 10 7 10 15 0 8 -4 15 -10 15 -5 0
-10 -7 -10 -15z"/>
<path d="M1130 4455 c0 -8 5 -15 10 -15 6 0 10 7 10 15 0 8 -4 15 -10 15 -5 0
-10 -7 -10 -15z"/>
<path d="M1350 4451 c0 -10 7 -21 15 -25 11 -4 15 1 15 19 0 16 -6 25 -15 25
-8 0 -15 -9 -15 -19z"/>
<path d="M1180 4416 c0 -32 20 -44 27 -17 3 12 12 21 19 21 8 0 14 5 14 10 0
6 -13 10 -30 10 -25 0 -30 -4 -30 -24z"/>
<path d="M1270 4400 c0 -22 5 -40 10 -40 6 0 10 18 10 40 0 22 -4 40 -10 40
-5 0 -10 -18 -10 -40z"/>
<path d="M1105 4410 c3 -5 8 -10 11 -10 2 0 4 5 4 10 0 6 -5 10 -11 10 -5 0
-7 -4 -4 -10z"/>
<path d="M1210 4375 c0 -8 7 -15 15 -15 8 0 15 7 15 15 0 8 -7 15 -15 15 -8 0
-15 -7 -15 -15z"/>
<path d="M1150 4348 c0 -10 7 -18 15 -18 8 0 15 8 15 18 0 10 -7 19 -15 19 -8
0 -15 -9 -15 -19z"/>
<path d="M1320 4345 c0 -8 7 -15 15 -15 8 0 15 7 15 15 0 8 -7 15 -15 15 -8 0
-15 -7 -15 -15z"/>
<path d="M1150 4290 c0 -5 14 -10 31 -10 19 0 37 -7 45 -17 12 -16 13 -15 14
10 0 25 -2 27 -45 27 -25 0 -45 -4 -45 -10z"/>
<path d="M1270 4290 c0 -5 18 -10 40 -10 22 0 40 5 40 10 0 6 -18 10 -40 10
-22 0 -40 -4 -40 -10z"/>
<path d="M1223 4193 c-18 -7 -16 -33 2 -33 8 0 15 9 15 20 0 11 -1 20 -2 19
-2 0 -9 -3 -15 -6z"/>
<path d="M1270 4175 c0 -8 5 -15 10 -15 6 0 10 7 10 15 0 8 -4 15 -10 15 -5 0
-10 -7 -10 -15z"/>
<path d="M2770 4021 c0 -5 12 -19 26 -30 20 -15 22 -21 10 -21 -9 0 -16 -4
-16 -10 0 -19 35 -50 57 -50 14 0 23 -6 23 -15 0 -8 7 -15 15 -15 8 0 15 -7
15 -15 0 -8 8 -15 18 -15 22 0 62 -43 62 -66 0 -11 6 -15 19 -11 14 3 17 0 14
-14 -4 -13 0 -19 11 -19 10 0 16 -9 16 -25 0 -16 6 -25 15 -25 10 0 15 -10 15
-30 0 -16 5 -30 10 -30 6 0 10 -23 10 -50 0 -36 4 -52 15 -56 12 -5 15 -26 15
-105 0 -81 3 -99 15 -99 9 0 15 10 15 26 0 14 7 32 15 40 12 12 15 43 15 145
0 108 -2 129 -15 129 -11 0 -15 11 -15 40 0 29 -4 40 -15 40 -9 0 -15 -9 -15
-24 0 -14 -4 -27 -8 -30 -12 -7 -39 27 -34 42 2 7 -5 12 -17 12 -12 0 -21 6
-21 14 0 19 17 29 25 16 4 -6 11 -8 16 -4 6 3 9 -2 7 -12 -2 -12 3 -19 12 -19
10 0 16 12 18 33 2 24 -1 32 -12 32 -10 0 -16 9 -16 25 0 14 -4 25 -10 25 -5
0 -10 7 -10 15 0 17 -20 20 -38 5 -9 -7 -9 -7 -2 2 15 18 12 38 -5 38 -8 0
-15 7 -15 15 0 19 -29 20 -36 1 -3 -8 -1 -24 5 -35 8 -14 8 -22 -1 -27 -6 -4
-14 -2 -16 4 -2 7 -10 12 -19 12 -10 0 -12 6 -8 19 5 16 2 18 -15 14 -17 -5
-20 -1 -20 26 0 28 -4 32 -27 30 -5 0 -7 -8 -5 -17 1 -9 -5 -5 -13 11 -9 15
-22 27 -30 27 -8 0 -19 9 -25 20 -11 21 -30 27 -30 11z m236 -168 c-1 -11 10
-20 32 -26 32 -10 38 -27 12 -35 -7 -3 -10 0 -6 6 4 6 -2 8 -14 5 -14 -4 -20
0 -20 11 0 9 -7 16 -15 16 -18 0 -19 12 -3 28 15 15 16 15 14 -5z m114 -209
c0 -8 7 -14 15 -14 11 0 15 -12 15 -45 0 -34 -4 -45 -16 -45 -9 0 -14 8 -13
18 4 44 -2 72 -15 72 -8 0 -14 8 -13 19 1 21 27 17 27 -5z"/>
<path d="M2730 3980 c0 -5 14 -10 30 -10 17 0 30 5 30 10 0 6 -13 10 -30 10
-16 0 -30 -4 -30 -10z"/>
<path d="M3150 3925 c0 -8 7 -15 15 -15 8 0 15 7 15 15 0 8 -7 15 -15 15 -8 0
-15 -7 -15 -15z"/>
<path d="M2790 3785 c0 -8 5 -15 10 -15 6 0 10 -7 10 -15 0 -8 -3 -14 -7 -12
-5 1 -9 -1 -10 -5 -7 -20 -1 -28 22 -28 14 0 25 -4 25 -9 0 -15 -44 -9 -56 8
-8 11 -13 11 -18 2 -5 -7 -1 -18 7 -24 8 -7 17 -21 19 -32 2 -11 9 -19 15 -18
6 1 9 -6 6 -17 -4 -14 0 -20 11 -20 11 0 16 9 16 29 0 31 14 49 24 32 4 -5 2
-12 -3 -16 -6 -3 -4 -14 6 -25 9 -10 20 -17 25 -14 4 3 8 -4 8 -15 0 -27 -26
-27 -33 0 -8 29 -27 14 -27 -22 0 -19 5 -29 15 -29 9 0 15 -9 15 -25 0 -16 6
-25 15 -25 11 0 15 -12 15 -45 0 -33 4 -45 15 -45 12 0 15 -13 15 -55 0 -33 4
-55 11 -55 8 0 9 35 5 118 -9 175 -16 222 -32 222 -9 0 -14 11 -14 31 0 25 -4
30 -18 27 -15 -4 -17 0 -14 23 3 22 0 29 -12 29 -9 0 -16 4 -16 10 0 12 -32
50 -42 50 -5 0 -8 -7 -8 -15z"/>
<path d="M2730 3225 c0 -8 7 -15 15 -15 8 0 15 7 15 15 0 8 -7 15 -15 15 -8 0
-15 -7 -15 -15z"/>
<path d="M3240 3195 c0 -8 5 -15 10 -15 6 0 10 7 10 15 0 8 -4 15 -10 15 -5 0
-10 -7 -10 -15z"/>
<path d="M2223 3135 c0 -8 4 -12 9 -9 5 3 6 10 3 15 -9 13 -12 11 -12 -6z"/>
<path d="M4390 3120 c0 -20 5 -30 15 -30 10 0 15 10 15 30 0 20 -5 30 -15 30
-10 0 -15 -10 -15 -30z"/>
<path d="M2228 3098 c-3 -7 -2 -24 2 -38 l6 -25 6 27 c6 29 -6 60 -14 36z"/>
<path d="M3520 3080 c0 -5 -7 -10 -15 -10 -8 0 -15 -7 -15 -15 0 -8 7 -15 15
-15 8 0 15 7 15 15 0 8 5 15 10 15 6 0 10 5 10 10 0 6 -4 10 -10 10 -5 0 -10
-4 -10 -10z"/>
<path d="M800 3060 c0 -5 5 -10 11 -10 5 0 7 5 4 10 -3 6 -8 10 -11 10 -2 0
-4 -4 -4 -10z"/>
<path d="M3740 3055 c0 -8 7 -15 15 -15 8 0 15 7 15 15 0 8 -7 15 -15 15 -8 0
-15 -7 -15 -15z"/>
<path d="M1580 2996 c0 -9 5 -16 10 -16 6 0 10 4 10 9 0 6 -4 13 -10 16 -5 3
-10 -1 -10 -9z"/>
<path d="M3090 2996 c0 -9 7 -16 16 -16 9 0 14 5 12 12 -6 18 -28 21 -28 4z"/>
<path d="M2980 2965 c0 -8 7 -15 15 -15 8 0 15 7 15 15 0 8 -7 15 -15 15 -8 0
-15 -7 -15 -15z"/>
<path d="M3818 2953 c-21 -5 -24 -23 -4 -23 8 0 16 7 20 15 3 8 4 14 3 14 -1
-1 -10 -3 -19 -6z"/>
<path d="M2790 2925 c0 -14 5 -25 10 -25 6 0 10 11 10 25 0 14 -4 25 -10 25
-5 0 -10 -11 -10 -25z"/>
<path d="M1605 2930 c3 -5 8 -10 11 -10 2 0 4 5 4 10 0 6 -5 10 -11 10 -5 0
-7 -4 -4 -10z"/>
<path d="M3570 2915 c0 -8 7 -15 15 -15 8 0 15 7 15 15 0 8 -7 15 -15 15 -8 0
-15 -7 -15 -15z"/>
<path d="M2258 2895 c-8 -8 3 -55 13 -55 5 0 9 8 9 18 0 20 -14 44 -22 37z"/>
<path d="M1636 2855 c4 -8 10 -15 15 -15 4 0 6 7 3 15 -4 8 -10 15 -15 15 -4
0 -6 -7 -3 -15z"/>
<path d="M2900 2825 c0 -8 -7 -15 -15 -15 -12 0 -15 -16 -15 -85 0 -69 -3 -85
-15 -85 -9 0 -15 -9 -15 -23 0 -12 -6 -31 -14 -42 -7 -11 -19 -37 -25 -57 -7
-21 -19 -38 -27 -38 -8 0 -14 -7 -14 -15 0 -8 -7 -15 -15 -15 -8 0 -15 -7 -15
-15 0 -8 -7 -15 -15 -15 -8 0 -15 -7 -15 -15 0 -10 -10 -15 -30 -15 -20 0 -30
-5 -30 -15 0 -8 -6 -15 -14 -15 -8 0 -21 -6 -28 -12 -14 -14 -76 -38 -97 -38
-7 0 -19 -7 -27 -15 -10 -9 -34 -15 -65 -15 -37 0 -49 -4 -49 -15 0 -8 -7 -15
-15 -15 -18 0 -19 -14 -5 -41 8 -13 21 -19 45 -19 32 0 35 3 35 29 0 28 1 29
67 33 39 2 68 9 71 16 2 7 17 12 33 12 19 0 29 5 29 15 0 9 9 15 25 15 14 0
25 5 25 10 0 6 14 10 30 10 20 0 30 5 30 15 0 8 7 15 15 15 8 0 15 7 15 15 0
8 7 15 15 15 8 0 15 7 15 15 0 8 4 15 9 15 5 0 12 8 15 18 15 38 31 62 43 62
8 0 13 13 13 30 0 20 5 30 15 30 11 0 15 13 15 53 0 31 6 61 15 73 21 27 21
154 0 154 -8 0 -15 -7 -15 -15z"/>
<path d="M3040 2825 c0 -8 7 -15 15 -15 8 0 15 7 15 15 0 8 -7 15 -15 15 -8 0
-15 -7 -15 -15z"/>
<path d="M3600 2800 c0 -5 7 -10 15 -10 8 0 15 5 15 10 0 6 -7 10 -15 10 -8 0
-15 -4 -15 -10z"/>
<path d="M985 2781 c-3 -5 -1 -12 5 -16 5 -3 10 1 10 9 0 18 -6 21 -15 7z"/>
<path d="M1671 2774 c0 -11 3 -14 6 -6 3 7 2 16 -1 19 -3 4 -6 -2 -5 -13z"/>
<path d="M1700 2715 c0 -8 4 -15 10 -15 5 0 7 7 4 15 -4 8 -8 15 -10 15 -2 0
-4 -7 -4 -15z"/>
<path d="M3800 2715 c0 -8 7 -15 15 -15 8 0 15 7 15 15 0 8 -7 15 -15 15 -8 0
-15 -7 -15 -15z"/>
<path d="M1045 2690 c-3 -5 -1 -10 4 -10 6 0 11 5 11 10 0 6 -2 10 -4 10 -3 0
-8 -4 -11 -10z"/>
<path d="M3070 2685 c0 -8 5 -15 10 -15 6 0 10 7 10 15 0 8 -4 15 -10 15 -5 0
-10 -7 -10 -15z"/>
<path d="M2280 2668 c0 -32 15 -55 23 -35 7 19 -2 57 -14 57 -5 0 -9 -10 -9
-22z"/>
<path d="M4080 2655 c0 -9 5 -15 11 -13 6 2 11 8 11 13 0 5 -5 11 -11 13 -6 2
-11 -4 -11 -13z"/>
<path d="M1720 2630 c0 -5 5 -10 10 -10 6 0 10 5 10 10 0 6 -4 10 -10 10 -5 0
-10 -4 -10 -10z"/>
<path d="M3540 2605 c0 -10 10 -15 30 -15 20 0 30 5 30 15 0 10 -10 15 -30 15
-20 0 -30 -5 -30 -15z"/>
<path d="M1740 2576 c0 -17 14 -29 23 -20 8 8 -3 34 -14 34 -5 0 -9 -6 -9 -14z"/>
<path d="M1800 2546 c0 -11 10 -16 31 -16 38 0 35 24 -4 28 -19 2 -27 -1 -27
-12z"/>
<path d="M3800 2545 c0 -8 7 -15 15 -15 8 0 15 7 15 15 0 8 -7 15 -15 15 -8 0
-15 -7 -15 -15z"/>
<path d="M1350 2490 c0 -5 7 -10 15 -10 8 0 15 5 15 10 0 6 -7 10 -15 10 -8 0
-15 -4 -15 -10z"/>
<path d="M1780 2490 c0 -5 5 -10 10 -10 6 0 10 5 10 10 0 6 -4 10 -10 10 -5 0
-10 -4 -10 -10z"/>
<path d="M2030 2465 c0 -8 5 -15 10 -15 6 0 10 7 10 15 0 8 -4 15 -10 15 -5 0
-10 -7 -10 -15z"/>
<path d="M3540 2465 c0 -10 10 -15 30 -15 20 0 30 5 30 15 0 10 -10 15 -30 15
-20 0 -30 -5 -30 -15z"/>
<path d="M1800 2420 c0 -20 5 -30 15 -30 10 0 15 10 15 30 0 20 -5 30 -15 30
-10 0 -15 -10 -15 -30z"/>
<path d="M1430 2405 c0 -8 -4 -15 -10 -15 -5 0 -10 -6 -10 -14 0 -8 -13 -15
-33 -18 -29 -3 -33 -1 -29 14 4 15 -2 18 -37 18 -22 0 -41 -4 -41 -10 0 -5 -7
-10 -15 -10 -8 0 -15 -9 -15 -20 0 -11 -7 -20 -15 -20 -9 0 -15 -9 -15 -25 0
-21 -5 -25 -30 -25 -19 0 -30 -5 -30 -14 0 -8 -3 -16 -7 -18 -11 -4 -43 -67
-43 -83 0 -8 8 -30 18 -49 15 -31 22 -36 55 -36 33 0 37 -3 37 -25 0 -16 6
-25 15 -25 8 0 15 -7 15 -15 0 -8 7 -15 15 -15 8 0 15 7 15 15 0 8 5 15 10 15
6 0 10 -20 10 -45 0 -41 -2 -45 -25 -45 -21 0 -25 -5 -25 -30 0 -20 5 -30 15
-30 8 0 15 -4 15 -10 0 -5 18 -10 40 -10 29 0 40 -4 40 -15 0 -10 10 -15 30
-15 20 0 30 5 30 15 0 8 5 15 10 15 6 0 10 35 10 85 l0 85 -70 0 c-40 0 -70 4
-70 10 0 6 -11 10 -25 10 -21 0 -25 5 -25 30 0 25 4 30 25 30 16 0 25 6 25 15
0 8 7 15 15 15 8 0 15 7 15 15 0 8 -7 15 -15 15 -12 0 -15 13 -15 55 0 30 -4
55 -10 55 -5 0 -10 11 -10 25 0 14 5 25 10 25 6 0 10 7 10 15 0 8 7 15 15 15
14 0 19 -11 16 -37 -1 -7 5 -13 14 -13 10 0 15 -10 15 -30 0 -20 -5 -30 -15
-30 -8 0 -15 -7 -15 -15 0 -9 9 -15 25 -15 20 0 27 6 32 30 3 17 12 30 19 30
8 0 14 9 14 19 0 11 5 23 10 26 6 3 10 1 10 -4 0 -6 7 -11 15 -11 10 0 15 -10
15 -30 0 -20 -5 -30 -15 -30 -8 0 -15 -7 -15 -15 0 -8 7 -15 15 -15 8 0 14 -6
13 -12 -2 -7 8 -14 21 -16 18 -3 22 0 18 12 -4 10 -1 16 8 16 8 0 15 -7 15
-15 0 -14 17 -20 48 -16 14 2 15 -8 2 -29 -9 -13 -10 -13 -10 0 0 13 -1 13
-10 0 -9 -13 -12 -13 -23 1 -8 10 -23 16 -40 14 -15 -2 -27 1 -27 6 0 5 -7 9
-15 9 -11 0 -15 -11 -15 -40 0 -29 4 -40 15 -40 8 0 15 -7 15 -15 0 -8 -7 -15
-15 -15 -8 0 -15 -6 -15 -14 0 -11 27 -16 128 -20 159 -7 153 -7 235 0 37 3
67 2 67 -3 0 -15 73 -10 92 6 11 10 18 29 18 53 0 27 4 38 15 38 8 0 15 7 15
16 0 11 -6 15 -19 11 -14 -3 -18 -1 -14 9 3 8 -1 14 -11 14 -9 0 -16 -3 -16
-8 0 -4 -13 -13 -29 -20 -16 -7 -31 -22 -34 -32 -4 -17 0 -20 29 -20 49 0 45
-25 -5 -28 l-40 -3 2 46 c1 31 5 44 13 41 7 -3 18 2 24 10 10 11 9 14 -4 14
-9 0 -16 7 -16 15 0 9 -9 15 -25 15 -16 0 -25 -6 -25 -15 0 -10 -10 -15 -31
-15 -24 0 -30 3 -25 16 3 9 6 18 6 20 0 3 6 2 13 -2 6 -4 5 0 -3 9 -17 18
-100 40 -100 26 0 -5 -7 -9 -15 -9 -8 0 -15 -7 -15 -15 0 -11 -11 -15 -40 -15
-47 0 -54 18 -10 27 17 3 30 12 30 19 0 8 4 14 8 14 5 0 9 7 9 15 0 8 -4 15
-9 15 -4 0 -8 5 -8 10 0 6 11 10 25 10 20 0 25 -5 25 -25 0 -27 3 -28 68 -25
35 1 42 -2 42 -17 0 -16 6 -18 40 -15 32 3 40 1 40 -12 0 -9 7 -16 15 -16 8 0
15 7 15 15 0 8 -7 15 -15 15 -8 0 -15 7 -15 16 0 19 -24 44 -41 44 -36 0 -119
26 -119 37 0 9 -20 13 -70 13 -56 0 -70 3 -70 15 0 8 -9 15 -19 15 -11 0 -26
7 -35 15 -8 8 -32 15 -55 15 -30 0 -41 -4 -41 -15z m114 -57 c-4 -5 -8 -7 -11
-4 -3 3 -13 -4 -22 -15 -17 -21 -17 -21 -17 -1 0 11 4 19 7 16 4 -2 10 -1 13
4 3 5 12 9 20 9 8 0 13 -4 10 -9z m36 -27 c0 -5 -9 -11 -21 -14 -12 -3 -18
-10 -14 -16 8 -14 -5 -14 -25 -1 -11 7 -12 10 -2 10 7 0 20 7 28 15 17 17 34
20 34 6z m30 -21 c10 -6 11 -10 3 -10 -7 0 -13 -9 -13 -20 0 -11 -4 -20 -10
-20 -5 0 -10 14 -10 30 0 32 6 36 30 20z m115 -60 c4 -6 11 -8 16 -5 5 4 6 -3
0 -17 -4 -13 -6 -29 -4 -35 3 -7 0 -13 -6 -13 -6 0 -11 5 -11 10 0 6 -7 10
-15 10 -10 0 -15 10 -15 30 0 30 21 42 35 20z m-455 -45 c0 -14 5 -25 10 -25
6 0 10 -7 10 -15 0 -11 -11 -15 -40 -15 -29 0 -40 4 -40 15 0 8 -7 15 -15 15
-9 0 -15 9 -15 25 0 23 4 25 45 25 41 0 45 -2 45 -25z m390 -40 c0 -10 -10
-15 -30 -15 -20 0 -30 -5 -30 -15 0 -8 -4 -15 -10 -15 -5 0 -10 14 -10 30 0
28 2 30 40 30 29 0 40 -4 40 -15z m110 0 c0 -10 10 -15 34 -15 21 0 36 -6 40
-15 4 -10 -1 -15 -14 -15 -11 0 -20 6 -20 13 0 8 -4 7 -10 -3 -7 -11 -10 -11
-10 -2 0 7 -4 11 -9 8 -5 -3 -12 2 -15 11 -6 15 -8 15 -16 3 -8 -13 -10 -13
-10 1 0 9 3 19 7 22 11 12 23 8 23 -8z m-50 -34 c0 -15 6 -19 27 -16 15 1 33
-4 41 -11 11 -12 10 -14 -13 -14 -14 0 -35 5 -45 10 -13 7 -21 7 -25 0 -10
-16 -45 -12 -45 6 0 13 6 15 28 9 22 -5 25 -4 15 6 -17 17 -16 29 2 29 8 0 15
-9 15 -19z m-540 -1 c0 -5 -7 -10 -15 -10 -8 0 -15 5 -15 10 0 6 7 10 15 10 8
0 15 -4 15 -10z"/>
<path d="M2950 2405 c0 -8 7 -15 15 -15 8 0 15 7 15 15 0 8 -7 15 -15 15 -8 0
-15 -7 -15 -15z"/>
<path d="M3355 2409 c-4 -6 -5 -13 -2 -16 7 -7 27 6 27 18 0 12 -17 12 -25 -2z"/>
<path d="M3637 2243 c-15 -14 -6 -23 23 -23 20 0 30 5 30 15 0 15 -40 21 -53
8z"/>
<path d="M1912 2204 c4 -21 22 -23 26 -1 2 10 -3 17 -13 17 -10 0 -15 -6 -13
-16z"/>
<path d="M3180 2205 c0 -11 11 -15 39 -15 25 0 41 5 45 15 4 12 -4 15 -39 15
-33 0 -45 -4 -45 -15z"/>
<path d="M2620 2180 c0 -5 5 -10 10 -10 6 0 10 5 10 10 0 6 -4 10 -10 10 -5 0
-10 -4 -10 -10z"/>
<path d="M3010 2065 c0 -8 7 -15 15 -15 8 0 15 7 15 15 0 8 -7 15 -15 15 -8 0
-15 -7 -15 -15z"/>
<path d="M3090 2040 c0 -6 29 -10 66 -10 41 0 63 4 59 10 -3 6 -33 10 -66 10
-33 0 -59 -4 -59 -10z"/>
<path d="M3570 2040 c0 -5 7 -10 15 -10 8 0 15 5 15 10 0 6 -7 10 -15 10 -8 0
-15 -4 -15 -10z"/>
<path d="M1522 1988 c2 -6 10 -14 16 -16 7 -2 10 2 6 12 -7 18 -28 22 -22 4z"/>
<path d="M2030 1991 c0 -6 5 -13 10 -16 6 -3 10 1 10 9 0 9 -4 16 -10 16 -5 0
-10 -4 -10 -9z"/>
<path d="M2799 1995 c-10 -9 14 -55 29 -55 6 0 12 7 12 15 0 8 -6 15 -14 15
-8 0 -16 7 -18 16 -2 9 -6 13 -9 9z"/>
<path d="M1970 1955 c0 -8 7 -15 15 -15 8 0 15 7 15 15 0 8 -7 15 -15 15 -8 0
-15 -7 -15 -15z"/>
<path d="M1880 1895 c0 -8 7 -15 15 -15 8 0 15 7 15 15 0 8 -7 15 -15 15 -8 0
-15 -7 -15 -15z"/>
<path d="M2000 1895 c0 -8 7 -15 15 -15 8 0 15 7 15 15 0 8 -7 15 -15 15 -8 0
-15 -7 -15 -15z"/>
<path d="M2140 1895 c0 -8 7 -15 15 -15 8 0 15 7 15 15 0 8 -7 15 -15 15 -8 0
-15 -7 -15 -15z"/>
<path d="M3120 1870 c0 -5 7 -10 15 -10 8 0 15 5 15 10 0 6 -7 10 -15 10 -8 0
-15 -4 -15 -10z"/>
<path d="M2035 1827 c-4 -10 -5 -21 -1 -24 10 -10 18 4 13 24 -4 17 -4 17 -12
0z"/>
<path d="M1640 1814 c0 -8 5 -12 10 -9 6 4 8 11 5 16 -9 14 -15 11 -15 -7z"/>
<path d="M2640 1815 c0 -8 7 -15 15 -15 8 0 15 7 15 15 0 8 -7 15 -15 15 -8 0
-15 -7 -15 -15z"/>
<path d="M3090 1815 c0 -8 7 -15 15 -15 8 0 15 7 15 15 0 8 -7 15 -15 15 -8 0
-15 -7 -15 -15z"/>
<path d="M2060 1754 c0 -8 5 -12 10 -9 6 4 8 11 5 16 -9 14 -15 11 -15 -7z"/>
<path d="M2730 1730 c0 -50 25 -46 28 5 2 26 -1 35 -13 35 -11 0 -15 -11 -15
-40z"/>
<path d="M3350 1755 c0 -8 7 -15 15 -15 8 0 15 7 15 15 0 8 -7 15 -15 15 -8 0
-15 -7 -15 -15z"/>
<path d="M1700 1730 c0 -5 5 -10 11 -10 5 0 7 5 4 10 -3 6 -8 10 -11 10 -2 0
-4 -4 -4 -10z"/>
<path d="M2250 1730 c0 -5 7 -10 15 -10 8 0 15 5 15 10 0 6 -7 10 -15 10 -8 0
-15 -4 -15 -10z"/>
<path d="M2080 1705 c0 -8 7 -15 15 -15 8 0 15 7 15 15 0 8 -7 15 -15 15 -8 0
-15 -7 -15 -15z"/>
<path d="M2420 1660 c0 -16 5 -30 10 -30 6 0 10 14 10 30 0 17 -4 30 -10 30
-5 0 -10 -13 -10 -30z"/>
<path d="M3040 1675 c0 -8 7 -15 15 -15 8 0 15 7 15 15 0 8 -7 15 -15 15 -8 0
-15 -7 -15 -15z"/>
<path d="M2030 1615 c0 -8 5 -15 10 -15 6 0 10 7 10 15 0 8 -4 15 -10 15 -5 0
-10 -7 -10 -15z"/>
<path d="M2110 1615 c0 -8 7 -15 15 -15 8 0 15 7 15 15 0 8 -7 15 -15 15 -8 0
-15 -7 -15 -15z"/>
<path d="M2420 1575 c0 -16 -6 -25 -15 -25 -8 0 -15 -7 -15 -15 0 -8 9 -15 20
-15 11 0 20 -6 20 -12 1 -9 4 -8 9 2 14 23 9 90 -6 90 -7 0 -13 -11 -13 -25z"/>
<path d="M3020 1590 c0 -5 5 -10 10 -10 6 0 10 5 10 10 0 6 -4 10 -10 10 -5 0
-10 -4 -10 -10z"/>
<path d="M3360 1589 c0 -5 5 -7 10 -4 6 3 10 8 10 11 0 2 -4 4 -10 4 -5 0 -10
-5 -10 -11z"/>
<path d="M2143 1535 c0 -8 4 -15 9 -15 4 0 8 7 8 15 0 8 -4 15 -8 15 -5 0 -9
-7 -9 -15z"/>
<path d="M2702 1534 c4 -21 22 -23 26 -1 2 10 -3 17 -13 17 -10 0 -15 -6 -13
-16z"/>
<path d="M2963 1543 c-18 -7 -16 -23 2 -23 8 0 15 -7 15 -16 0 -26 25 -9 28
19 3 27 -12 34 -45 20z"/>
<path d="M1910 1395 c0 -12 -14 -15 -70 -15 l-70 0 0 -319 0 -319 23 -6 c12
-3 50 -6 85 -6 l62 0 0 115 c0 107 1 115 19 115 21 0 71 -85 71 -121 0 -10 5
-19 10 -19 6 0 10 -13 10 -30 0 -20 5 -30 15 -30 8 0 15 -7 15 -15 0 -12 13
-15 55 -15 54 0 55 0 55 30 0 17 -4 30 -10 30 -5 0 -10 11 -10 25 0 16 -6 25
-15 25 -10 0 -15 10 -15 34 0 19 -7 41 -15 50 -8 8 -15 24 -15 35 0 12 6 21
15 21 8 0 15 7 15 15 0 9 9 15 25 15 l25 0 0 140 c0 87 -4 140 -10 140 -5 0
-10 7 -10 15 0 8 -7 15 -15 15 -8 0 -15 6 -15 13 -1 22 -73 47 -138 47 -48 0
-62 3 -62 15 0 8 -7 15 -15 15 -8 0 -15 -7 -15 -15z m-40 -54 c0 -18 -18 -21
-30 -6 -10 13 -9 15 9 15 11 0 21 -4 21 -9z m100 -4 c-47 -22 -51 -27 -37 -41
7 -7 19 -15 27 -19 8 -3 0 -6 -17 -6 -24 -1 -33 -6 -33 -18 0 -15 -2 -16 -10
-3 -5 8 -5 19 -1 25 16 19 17 50 1 62 -12 10 -5 12 40 12 50 -1 53 -2 30 -12z
m78 2 c-2 -6 -7 -10 -11 -10 -4 1 -14 1 -22 1 -8 0 -15 5 -15 10 0 6 12 10 26
10 14 0 24 -5 22 -11z m62 -34 c0 -9 -9 -15 -25 -15 -22 0 -24 2 -13 15 17 19
38 19 38 0z m-113 -11 c-3 -3 -12 -4 -19 -1 -8 3 -5 6 6 6 11 1 17 -2 13 -5z
m138 -14 c-3 -5 -13 -10 -21 -10 -8 0 -12 5 -9 10 3 6 13 10 21 10 8 0 12 -4
9 -10z m-279 -27 c-10 -10 -19 5 -10 18 6 11 8 11 12 0 2 -7 1 -15 -2 -18z
m207 20 c-13 -2 -35 -2 -50 0 -16 2 -5 4 22 4 28 0 40 -2 28 -4z m95 -41 c9 9
12 -9 12 -76 0 -66 -3 -87 -12 -83 -7 2 -12 10 -10 16 1 7 -2 10 -6 7 -5 -3
-8 -17 -6 -31 2 -22 -1 -25 -18 -19 -18 5 -20 3 -15 -15 3 -14 0 -21 -9 -21
-8 0 -14 -7 -14 -15 0 -8 -7 -15 -15 -15 -15 0 -19 -11 -16 -39 3 -20 -16 -4
-22 19 -3 13 0 20 9 20 8 0 14 5 14 10 0 6 -4 10 -10 10 -5 0 -10 9 -10 20 0
14 6 19 21 17 12 -1 24 3 26 9 2 7 -6 11 -19 10 -13 -1 -39 1 -58 5 -27 5 -19
7 33 6 65 0 69 1 83 27 15 30 19 86 6 86 -4 0 -7 12 -6 28 2 44 4 48 18 30 10
-13 15 -15 24 -6z m-108 -62 l0 -70 -55 0 -55 0 0 70 0 70 55 0 55 0 0 -70z
m-143 8 c-2 -13 -4 -5 -4 17 -1 22 1 32 4 23 2 -10 2 -28 0 -40z m3 -93 c0
-10 10 -15 28 -15 19 0 23 -3 13 -9 -8 -5 -11 -16 -8 -25 10 -25 -11 -19 -29
9 -14 21 -19 23 -32 13 -9 -7 -13 -8 -10 -3 2 6 8 18 11 28 8 21 27 23 27 2z
m-2 -107 c3 -13 -3 -16 -25 -14 -15 2 -30 4 -32 5 -2 0 2 8 9 16 16 20 44 15
48 -7z m99 -10 c-3 -7 -5 -2 -5 12 0 14 2 19 5 13 2 -7 2 -19 0 -25z m69 -64
c-5 -20 -3 -27 14 -31 11 -3 20 -13 20 -23 0 -10 3 -26 6 -35 5 -13 8 -14 15
-3 7 10 9 9 9 -4 0 -10 -4 -18 -10 -18 -12 0 -50 37 -49 48 3 20 -2 32 -16 32
-15 0 -21 40 -8 53 15 15 25 5 19 -19z m-216 -9 c0 -14 -4 -25 -10 -25 -5 0
-10 11 -10 25 0 14 5 25 10 25 6 0 10 -11 10 -25z m205 -45 c3 -5 1 -10 -4
-10 -6 0 -11 5 -11 10 0 6 2 10 4 10 3 0 8 -4 11 -10z m35 -44 c0 -3 -4 -8
-10 -11 -5 -3 -10 -1 -10 4 0 6 5 11 10 11 6 0 10 -2 10 -4z"/>
<path d="M2201 1394 c0 -11 3 -14 6 -6 3 7 2 16 -1 19 -3 4 -6 -2 -5 -13z"/>
<path d="M2450 1395 c0 -11 -12 -15 -45 -15 l-45 0 0 -45 c0 -33 -4 -45 -15
-45 -12 0 -15 -13 -15 -55 0 -30 -4 -55 -10 -55 -5 0 -10 -24 -10 -54 0 -39
-4 -55 -15 -60 -11 -4 -15 -20 -15 -55 0 -34 -4 -51 -15 -55 -11 -4 -15 -20
-15 -56 0 -32 -6 -57 -15 -66 -9 -9 -15 -34 -15 -60 l0 -44 85 0 c69 0 85 3
85 15 0 8 -5 15 -12 15 -9 0 -9 3 0 12 7 7 12 20 12 30 0 10 7 18 15 18 8 0
15 -7 15 -15 0 -8 7 -15 15 -15 8 0 15 7 15 15 0 33 29 12 41 -30 l13 -45 68
0 68 0 0 70 c0 45 -4 70 -11 70 -6 0 -9 6 -6 14 3 8 -3 23 -14 34 -13 15 -19
36 -19 72 0 38 -4 50 -15 50 -11 0 -15 12 -15 51 0 31 -6 56 -15 65 -9 10 -15
34 -15 65 0 37 -4 49 -15 49 -11 0 -15 12 -15 50 0 33 -6 57 -17 70 -21 24
-33 26 -33 5z m-40 -49 c0 -3 -4 -8 -10 -11 -5 -3 -10 -1 -10 4 0 6 5 11 10
11 6 0 10 -2 10 -4z m37 -2 c-3 -3 -12 -4 -19 -1 -8 3 -5 6 6 6 11 1 17 -2 13
-5z m-38 -50 c-8 -10 -8 -14 0 -14 6 0 11 -9 11 -20 0 -11 -5 -20 -11 -20 -5
0 -7 5 -4 10 3 6 2 10 -3 10 -5 0 -8 12 -6 28 3 35 2 34 14 27 8 -5 7 -11 -1
-21z m71 -14 c0 -29 -4 -40 -15 -40 -11 0 -15 11 -15 40 0 29 4 40 15 40 11 0
15 -11 15 -40z m-60 -80 l25 -8 -25 -1 c-20 -1 -26 -7 -28 -28 -4 -50 -16 -46
-26 10 -8 40 0 44 54 27z m76 -68 c-13 -12 -18 9 -10 45 l8 38 4 -39 c2 -21 1
-41 -2 -44z m-152 -7 c1 -9 9 -20 16 -25 11 -7 12 -14 2 -34 -19 -42 -32 -30
-32 31 0 52 8 68 14 28z m56 -15 c0 -6 9 -5 21 2 17 10 23 10 26 1 3 -7 11
-13 20 -13 17 0 13 -22 -5 -28 -7 -2 -12 3 -12 12 0 9 -7 16 -15 16 -8 0 -15
-7 -15 -15 0 -20 -10 -19 -26 3 -16 21 -17 32 -4 32 6 0 10 -5 10 -10z m127
-55 c-1 -28 -7 -45 -14 -45 -7 0 -13 -6 -13 -14 0 -8 -4 -18 -10 -21 -5 -3 -9
13 -8 39 0 25 4 43 9 40 5 -3 13 6 19 20 14 38 20 32 17 -19z m-135 -50 c-2
-25 -8 -45 -14 -45 -5 0 -6 5 -3 10 6 9 -8 14 -28 11 -5 -1 -6 4 -3 11 3 7 9
21 12 30 3 9 13 19 23 21 9 3 16 5 16 6 0 0 -1 -19 -3 -44z m58 -40 c0 -24 -5
-35 -15 -35 -15 0 -22 50 -8 63 15 15 23 5 23 -28z m-125 5 c-3 -5 3 -10 14
-10 18 0 21 -6 21 -40 0 -29 -4 -40 -15 -40 -8 0 -15 9 -15 21 0 11 -3 18 -7
16 -5 -3 -9 10 -10 29 -1 19 3 34 8 34 6 0 7 -4 4 -10z m223 -41 c-7 -5 -9 -9
-5 -9 14 0 -14 -40 -28 -40 -8 0 -15 -9 -15 -20 0 -12 7 -20 17 -20 14 0 15
-2 4 -12 -11 -10 -14 -10 -18 0 -6 15 -143 17 -143 1 0 -5 -5 -7 -10 -4 -7 4
-3 14 9 24 11 10 18 21 14 25 -3 3 -1 6 6 6 7 0 9 5 6 10 -3 6 3 10 14 10 16
0 21 -6 21 -25 0 -16 6 -25 16 -25 8 0 13 4 9 9 -3 5 5 11 17 13 13 2 22 9 20
16 -1 8 2 11 8 7 5 -3 10 1 10 10 0 9 5 13 10 10 6 -4 10 5 10 19 0 16 6 26
15 26 8 0 16 6 16 13 1 6 4 1 6 -12 3 -13 -1 -27 -9 -32z m-248 -69 c12 0 5
-33 -8 -38 -8 -2 -12 11 -11 40 1 24 4 33 6 21 2 -13 8 -23 13 -23z m290 -17
c0 -16 -5 -35 -10 -43 -9 -13 -11 -13 -19 -1 -5 8 -6 22 -2 30 5 9 6 22 4 29
-3 6 2 12 11 12 11 0 16 -9 16 -27z m-33 -79 c-3 -3 -12 -4 -19 -1 -8 3 -5 6
6 6 11 1 17 -2 13 -5z"/>
<path d="M969 1343 c-4 -230 -2 -583 4 -583 4 0 7 -7 7 -15 0 -12 15 -15 75
-15 l75 0 0 115 0 115 68 0 c77 0 125 17 119 41 -3 12 1 15 16 11 16 -4 19 -1
15 15 -4 15 -1 19 11 16 14 -3 19 11 30 94 9 69 10 98 2 101 -6 2 -11 15 -11
29 0 20 -4 24 -19 20 -13 -3 -18 -1 -14 8 5 14 -30 55 -47 55 -5 0 -10 7 -10
15 0 13 -24 15 -160 15 l-160 0 -1 -37z m150 3 c-10 -9 -109 -14 -109 -6 0 6
26 10 57 10 31 0 54 -2 52 -4z m120 0 c-12 -10 -59 -15 -59 -6 0 5 14 10 32
10 17 0 29 -2 27 -4z m-203 -68 c-3 -24 -3 -35 2 -26 4 11 12 14 20 9 12 -7
11 -14 -2 -39 -21 -40 -21 -111 -1 -118 8 -4 15 -13 15 -21 0 -8 -4 -11 -10
-8 -6 4 -7 -1 -3 -10 7 -19 -13 -36 -34 -28 -10 4 -13 37 -13 144 0 120 2 139
16 139 13 0 15 -8 10 -42z m287 -6 c28 -3 33 -19 18 -57 -5 -11 -4 -25 1 -32
11 -14 1 -53 -13 -53 -5 0 -9 5 -9 10 0 6 -5 10 -10 10 -6 0 -3 -11 6 -25 9
-14 20 -22 25 -19 5 3 9 -4 9 -15 0 -17 -6 -21 -30 -21 -18 0 -30 -5 -30 -13
0 -8 -7 -14 -15 -14 -8 0 -12 4 -9 8 2 4 -4 10 -13 12 -11 3 -8 5 10 6 30 1
29 0 27 85 -1 39 3 62 12 67 10 7 10 9 -1 9 -11 0 -9 4 5 15 16 13 16 14 2 9
-10 -3 -18 -1 -18 5 0 7 -26 12 -67 13 l-68 2 63 3 c56 4 62 6 63 26 1 20 2
20 8 -3 5 -18 15 -26 34 -28z m-208 8 c18 -8 17 -9 -7 -9 -15 -1 -30 4 -33 9
-7 12 12 12 40 0z m153 -112 l3 -68 -71 0 -70 0 0 70 0 71 68 -3 67 -3 3 -67z
m-85 -106 c-29 -2 -53 -7 -53 -13 0 -5 -7 -9 -15 -9 -10 0 -15 -10 -15 -31 0
-38 -24 -35 -28 4 -2 20 1 27 14 27 11 0 15 6 12 18 -4 15 2 17 66 12 69 -4
69 -5 19 -8z m60 -33 c-6 -6 -19 -9 -29 -6 -17 3 -16 5 6 14 28 12 39 8 23 -8z
m-203 -38 c0 -5 10 -12 23 -14 l22 -4 -22 -8 c-21 -7 -22 -11 -17 -64 11 -94
10 -104 -8 -106 -23 -4 -28 17 -23 100 2 39 4 78 5 88 0 17 20 25 20 8z"/>
<path d="M1490 1366 c0 -8 -5 -16 -10 -18 -6 -2 -15 -32 -20 -67 -5 -35 -14
-67 -21 -71 -8 -5 -10 -29 -7 -71 3 -35 3 -58 0 -51 -9 29 -22 8 -22 -37 0
-31 -6 -55 -15 -65 -9 -9 -15 -33 -15 -61 0 -31 -5 -47 -15 -51 -9 -4 -15 -20
-15 -43 0 -20 -4 -42 -9 -50 -18 -29 10 -51 65 -51 54 0 75 14 88 57 7 23 40
37 73 31 15 -3 24 -21 39 -75 2 -9 25 -13 69 -13 l65 0 0 69 c0 39 -4 73 -10
76 -5 3 -10 28 -10 55 0 33 -5 50 -15 54 -11 4 -15 21 -15 60 0 31 -5 56 -11
58 -6 2 -13 26 -16 53 -3 28 -12 59 -19 70 -8 11 -14 36 -14 57 0 21 -4 38 -9
38 -5 0 -12 14 -16 30 -6 29 -9 30 -61 30 -40 0 -54 -4 -54 -14z m90 -20 c0
-21 -14 -32 -36 -28 -35 6 -31 32 6 32 17 0 30 -2 30 -4z m-36 -72 c8 -3 19
-22 22 -42 l7 -37 13 40 12 40 1 -38 c1 -32 -3 -39 -25 -47 -20 -8 -24 -14
-18 -33 3 -12 11 -28 17 -35 16 -20 -1 -27 -22 -8 -17 15 -19 15 -25 1 -3 -9
-7 -38 -7 -63 -1 -26 -3 -39 -6 -29 -2 9 -9 17 -15 17 -6 0 -8 15 -6 33 3 29
1 33 -14 29 -15 -3 -18 2 -18 29 0 26 3 30 10 19 5 -8 10 -11 10 -7 0 4 9 3
20 -3 17 -9 20 -8 20 11 0 12 7 27 17 34 14 11 12 13 -16 23 -29 10 -36 32
-10 32 6 0 7 -5 3 -12 -4 -7 -3 -8 4 -4 21 13 14 38 -8 31 -11 -3 -20 -2 -20
4 0 5 8 12 18 14 9 3 18 5 19 6 1 0 8 -2 17 -5z m86 -149 c0 -16 -6 -25 -15
-25 -15 0 -21 31 -8 43 13 14 23 6 23 -18z m0 -83 c0 -2 -9 -2 -20 1 -10 3
-21 0 -24 -7 -2 -6 -5 4 -5 21 l-1 33 25 -22 c14 -12 25 -24 25 -26z m-181
-19 c1 -7 -3 -13 -9 -13 -5 0 -10 15 -9 33 0 27 2 29 9 12 5 -11 9 -26 9 -32z
m211 -34 c0 -12 -11 -30 -24 -40 -30 -23 -40 -58 -19 -66 8 -3 19 0 23 7 4 7
13 9 19 6 7 -5 11 1 11 13 0 12 5 21 11 21 6 0 9 -14 7 -32 -3 -29 -7 -33 -35
-36 -18 -2 -33 -7 -33 -11 0 -4 -29 -9 -65 -10 -44 -1 -65 2 -65 10 0 6 -7 9
-15 5 -8 -3 -15 -1 -15 4 0 6 -7 10 -15 10 -8 0 -15 -7 -15 -15 0 -8 -4 -15
-10 -15 -5 0 -10 20 -10 45 0 34 4 45 16 45 8 0 13 -4 9 -10 -3 -5 8 -16 24
-25 19 -9 32 -11 36 -5 3 6 17 10 30 10 18 0 23 -4 19 -15 -4 -10 0 -15 15
-15 12 0 21 6 21 15 0 8 5 15 10 15 6 0 10 11 10 25 0 26 36 85 52 85 4 0 8
-9 8 -21z m-186 -21 c23 -45 21 -62 -5 -48 -12 7 -18 18 -15 26 3 8 1 14 -4
14 -6 0 -10 9 -10 20 0 30 16 24 34 -12z m106 -13 c0 -21 -5 -25 -30 -25 -31
0 -39 17 -18 38 22 22 48 14 48 -13z m-120 -139 c0 -25 -27 -32 -42 -11 -12
16 -9 25 7 19 8 -4 15 -1 15 5 0 6 5 11 10 11 6 0 10 -11 10 -24z m206 1 c-2
-33 -36 -34 -36 -1 0 17 6 24 19 24 13 0 18 -7 17 -23z m-279 -19 c-3 -8 -6
-5 -6 6 -1 11 2 17 5 13 3 -3 4 -12 1 -19z"/>
<path d="M2980 1365 c0 -8 -7 -15 -15 -15 -8 0 -15 -7 -15 -15 0 -8 -4 -15
-10 -15 -5 0 -10 -7 -10 -15 0 -8 -7 -15 -15 -15 -12 0 -15 -17 -15 -95 0 -78
3 -95 15 -95 8 0 15 -8 15 -18 0 -10 6 -30 12 -44 11 -22 21 -27 63 -32 27 -3
78 -3 113 -1 48 2 62 0 63 -11 11 -122 10 -124 -71 -124 -63 0 -69 2 -72 22
-2 18 -10 23 -38 24 -19 0 -43 -3 -52 -8 -13 -6 -18 -5 -18 7 0 8 -7 15 -15
15 -12 0 -15 -13 -15 -55 0 -42 3 -55 15 -55 8 0 15 -7 15 -15 0 -8 5 -15 10
-15 6 0 10 -7 10 -15 0 -8 6 -15 14 -15 8 0 16 -7 20 -15 4 -12 27 -15 118
-15 126 1 138 6 172 73 11 20 25 37 33 37 21 0 18 150 -4 194 -10 20 -24 36
-30 36 -7 0 -13 7 -13 15 0 8 -4 15 -10 15 -5 0 -10 7 -10 15 0 12 -16 15 -85
15 -50 0 -85 4 -85 10 0 6 -13 10 -30 10 -26 0 -30 4 -30 28 0 44 25 59 102
60 61 0 67 -1 70 -21 2 -18 11 -23 41 -25 21 -2 51 3 67 10 25 10 30 19 30 46
0 20 -6 35 -15 38 -8 4 -15 12 -15 20 0 8 -7 14 -15 14 -8 0 -15 7 -15 15 0 8
-4 15 -10 15 -5 0 -10 7 -10 15 0 13 -21 15 -130 15 -109 0 -130 -2 -130 -15z
m70 -24 c0 -6 -9 -9 -20 -8 -11 1 -20 5 -20 9 0 4 9 8 20 8 11 0 20 -4 20 -9z
m127 3 c-11 -11 -117 -16 -117 -6 0 5 28 10 62 11 35 1 59 -1 55 -5z m33 -4
c0 -5 -2 -10 -4 -10 -3 0 -8 5 -11 10 -3 6 -1 10 4 10 6 0 11 -4 11 -10z
m-200 -39 c0 -11 8 -22 18 -24 9 -3 1 -5 -19 -6 l-37 -1 6 -45 c3 -27 1 -45
-6 -45 -12 0 -23 26 -14 34 10 11 11 36 1 36 -5 0 -9 9 -9 20 0 11 7 20 15 20
8 0 15 7 15 15 0 8 7 15 15 15 8 0 15 -9 15 -19z m106 0 c-1 -10 10 -14 36
-14 21 0 35 -4 32 -8 -9 -15 -94 -11 -94 4 0 8 -10 13 -21 13 -12 -1 -24 5
-26 12 -4 9 6 12 35 10 26 -2 39 -8 38 -17z m124 15 c0 -11 -19 -15 -25 -6 -3
5 1 10 9 10 9 0 16 -2 16 -4z m18 -48 c-4 -27 -48 -39 -48 -14 0 9 7 16 15 16
8 0 15 5 15 10 0 6 5 10 11 10 6 0 9 -10 7 -22z m-279 -120 c-6 -48 -5 -48
115 -48 102 0 114 -2 112 -17 0 -11 6 -17 17 -17 9 1 17 -4 17 -12 0 -8 6 -14
13 -15 9 0 9 -2 -1 -6 -6 -2 -10 -9 -6 -14 3 -5 -4 -9 -15 -9 -12 0 -21 7 -21
15 0 12 -20 15 -117 15 -76 0 -113 4 -104 9 12 8 9 11 -12 16 -17 5 -27 14
-27 26 0 10 4 19 9 19 4 0 6 11 3 25 -2 15 0 25 7 25 7 0 11 -6 10 -12z m281
-208 c0 -11 -4 -20 -10 -20 -5 0 -10 9 -10 20 0 11 5 20 10 20 6 0 10 -9 10
-20z m-247 -89 c3 -14 1 -18 -9 -14 -8 3 -22 -1 -31 -8 -12 -10 -15 -10 -9 -1
4 6 2 12 -3 12 -6 0 -11 5 -11 11 0 5 5 7 10 4 6 -3 10 -1 10 4 0 19 38 12 43
-8z m247 -19 c0 -15 -2 -15 -10 -2 -13 20 -13 33 0 25 6 -3 10 -14 10 -23z
m-115 1 c-11 -3 -28 -12 -37 -20 -15 -14 -17 -13 -15 6 1 17 7 21 37 20 21 -1
27 -3 15 -6z m95 -16 c0 -15 -6 -24 -15 -24 -9 0 -14 6 -11 14 3 8 -2 13 -14
13 -11 0 -20 5 -20 10 0 6 14 10 30 10 25 0 30 -4 30 -23z m-248 -19 c-7 -7
-12 -8 -12 -2 0 14 12 26 19 19 2 -3 -1 -11 -7 -17z m153 12 c-3 -5 -10 -10
-16 -10 -5 0 -9 5 -9 10 0 6 7 10 16 10 8 0 12 -4 9 -10z"/>
<path d="M3477 1360 c-10 -12 -17 -37 -17 -59 0 -22 -7 -46 -15 -55 -8 -8 -15
-32 -15 -54 0 -23 -6 -45 -15 -52 -10 -8 -15 -31 -15 -71 0 -33 -4 -59 -10
-59 -5 0 -10 -25 -10 -55 0 -42 -3 -55 -15 -55 -11 0 -15 -12 -15 -44 0 -26
-6 -51 -15 -60 -8 -8 -15 -26 -15 -40 0 -25 1 -26 70 -26 56 0 70 3 70 15 0 8
7 15 15 15 10 0 15 10 15 30 0 28 2 30 40 30 29 0 40 -4 40 -15 0 -8 7 -15 15
-15 10 0 15 -10 15 -30 l0 -30 70 0 70 0 0 54 c0 32 -5 56 -12 58 -6 2 -13 30
-16 61 -2 32 -8 60 -13 63 -5 3 -9 26 -9 52 0 26 -7 56 -15 66 -8 11 -15 39
-15 62 0 25 -6 49 -15 58 -8 8 -15 30 -15 48 0 18 -7 42 -15 52 -8 11 -15 32
-15 48 0 27 -2 28 -53 28 -40 0 -57 -5 -70 -20z m93 -30 c0 -11 -5 -20 -11
-20 -5 0 -7 -4 -4 -10 3 -5 -3 -10 -14 -10 -15 0 -19 6 -19 30 1 25 5 30 25
30 16 0 23 -6 23 -20z m-56 -46 c21 -8 22 -74 2 -74 -16 0 -26 21 -26 56 0 26
1 27 24 18z m83 -76 c-3 -7 -5 -2 -5 12 0 14 2 19 5 13 2 -7 2 -19 0 -25z
m-18 -27 c-15 -5 -22 6 -14 19 6 9 10 9 16 -1 5 -8 4 -15 -2 -18z m-99 -11 c0
-5 8 -10 18 -10 13 0 14 -2 3 -9 -8 -5 -11 -16 -6 -30 6 -20 25 -30 25 -12 0
4 21 11 46 14 26 2 51 11 56 18 6 10 8 1 6 -26 -2 -22 -10 -48 -18 -58 -8 -10
-20 -32 -27 -50 -12 -31 -12 -29 -11 28 2 58 1 60 -25 63 -24 3 -27 0 -27 -26
0 -22 -6 -31 -21 -35 -19 -5 -21 -2 -17 24 3 17 -1 34 -9 40 -15 13 -18 79 -3
79 6 0 10 -4 10 -10z m60 -32 c0 -5 -4 -8 -10 -8 -5 0 -10 10 -10 23 0 18 2
19 10 7 5 -8 10 -18 10 -22z m-82 -96 c2 -12 10 -22 18 -22 8 0 13 -3 13 -7
-1 -5 -1 -32 0 -60 1 -40 5 -53 16 -53 8 0 15 -7 15 -15 0 -9 9 -15 21 -15 18
0 19 2 9 15 -11 13 -8 15 19 15 24 0 31 4 31 20 0 27 33 89 48 90 15 0 15 -21
0 -71 -6 -23 -17 -39 -26 -39 -8 0 -20 -8 -27 -17 -10 -14 -10 -20 1 -31 8 -7
14 -19 14 -25 0 -8 -4 -7 -9 2 -10 16 -134 17 -139 1 -5 -15 -23 -12 -21 3 3
26 -2 37 -16 37 -8 0 -15 7 -15 15 0 8 7 15 15 15 8 0 15 5 15 10 0 6 5 10 10
10 6 0 10 -10 10 -23 0 -23 17 -47 33 -47 5 0 4 7 -3 15 -10 12 -10 15 1 15
11 1 10 3 -2 13 -9 7 -18 29 -22 50 -3 20 -13 44 -21 53 -19 19 -22 78 -3 72
6 -3 13 -14 15 -26z m82 -87 c0 -14 -4 -25 -10 -25 -5 0 -10 11 -10 25 0 14 5
25 10 25 6 0 10 -11 10 -25z m-133 -17 c-3 -8 -6 -5 -6 6 -1 11 2 17 5 13 3
-3 4 -12 1 -19z m281 -85 c-3 -15 -4 -15 -21 1 -17 18 -17 19 0 31 15 12 19
11 21 -1 2 -8 2 -22 0 -31z m-288 -50 c0 -7 -4 -13 -10 -13 -5 0 -10 12 -10
28 0 21 2 24 10 12 5 -8 10 -21 10 -27z m250 -4 c0 -5 -4 -9 -8 -9 -5 0 -9 7
-9 15 0 8 4 12 9 9 4 -3 8 -9 8 -15z"/>
<path d="M3591 1094 c0 -11 3 -14 6 -6 3 7 2 16 -1 19 -3 4 -6 -2 -5 -13z"/>
<path d="M3800 1055 l0 -325 70 0 70 0 0 115 0 115 25 0 c15 0 25 -6 25 -14 0
-8 7 -16 15 -20 9 -3 15 -19 15 -41 0 -22 6 -38 15 -41 8 -4 15 -15 15 -25 0
-11 7 -22 15 -25 8 -4 15 -12 15 -19 0 -6 9 -20 19 -29 22 -20 112 -19 119 2
2 6 -3 12 -12 12 -11 0 -16 9 -16 29 0 16 -6 31 -13 34 -7 3 -19 31 -27 62 -8
32 -20 64 -28 71 -11 12 -10 15 10 23 13 5 33 27 43 50 11 22 26 41 33 41 19
0 17 189 -3 196 -8 4 -15 15 -15 25 0 11 -7 22 -15 25 -8 4 -15 12 -15 20 0 8
-10 14 -25 14 -16 0 -25 6 -25 15 0 13 -24 15 -155 15 l-155 0 0 -325z m250
285 c0 -6 -40 -10 -100 -10 -84 0 -100 -2 -100 -16 0 -8 7 -22 15 -30 13 -14
15 -14 15 1 0 19 22 15 28 -5 3 -7 0 -10 -6 -6 -5 3 -13 -1 -16 -10 -4 -12 -2
-15 9 -10 13 4 15 -9 15 -89 l0 -95 72 0 c83 0 88 -9 5 -11 -51 -1 -55 -3 -47
-20 7 -12 6 -20 -2 -25 -6 -4 -8 -3 -5 2 3 6 -7 18 -23 29 -26 17 -29 25 -32
87 -2 37 0 68 5 68 4 0 6 10 6 23 -1 15 -3 17 -6 6 -2 -10 -12 -19 -22 -22
-16 -4 -18 -12 -14 -58 3 -30 12 -64 19 -77 13 -20 13 -23 -1 -28 -20 -8 -20
-64 0 -64 8 0 15 -4 15 -10 0 -5 -9 -10 -19 -10 -17 0 -18 -6 -13 -87 4 -65 2
-84 -7 -79 -9 6 -11 80 -11 282 l2 274 109 0 c66 0 109 -4 109 -10z m44 -32
c5 -10 7 -10 12 0 8 17 34 15 34 -3 0 -8 -6 -15 -14 -15 -9 0 -12 -7 -9 -20 3
-11 10 -20 15 -20 5 0 6 5 3 10 -3 6 1 10 10 10 18 0 13 -29 -11 -65 -16 -23
-18 -71 -4 -80 6 -4 8 -11 5 -16 -4 -5 -2 -9 4 -9 6 0 8 -7 5 -15 -4 -8 -12
-15 -20 -15 -11 0 -14 21 -14 100 l0 100 -95 0 c-52 0 -95 4 -95 9 0 5 39 7
88 4 66 -3 83 -2 70 7 -10 6 -18 15 -18 20 0 14 27 12 34 -2z m-14 -138 l0
-70 -70 0 -70 0 0 70 0 70 70 0 70 0 0 -70z m80 14 c0 -8 -4 -12 -10 -9 -5 3
-10 10 -10 16 0 5 5 9 10 9 6 0 10 -7 10 -16z m-42 -132 c20 -22 26 -42 12
-42 -5 0 -10 7 -10 15 0 8 -9 15 -20 15 -21 0 -22 -3 -22 -80 0 -64 2 -66 18
-45 15 19 16 18 11 -21 -2 -22 -9 -49 -16 -60 -12 -18 -12 -17 -7 5 5 26 -10
75 -21 68 -5 -3 -9 6 -9 19 -1 13 2 24 8 24 5 0 7 4 4 9 -3 5 -15 7 -26 4 -11
-3 -20 0 -20 6 0 6 -7 11 -17 11 -9 0 -13 3 -9 8 8 7 13 9 46 11 13 1 20 8 20
21 0 11 5 20 10 20 6 0 10 7 10 15 0 20 16 19 38 -3z m-178 -63 c0 -5 -7 -9
-15 -9 -12 0 -15 -17 -15 -90 0 -124 -30 -120 -33 5 -1 40 4 59 18 74 10 12
15 21 11 21 -4 0 -5 4 -1 10 7 11 35 2 35 -11z m200 -159 c0 -5 -7 -10 -15
-10 -8 0 -15 5 -15 10 0 6 7 10 15 10 8 0 15 -4 15 -10z"/>
<path d="M3852 1250 c0 -19 2 -27 5 -17 2 9 2 25 0 35 -3 9 -5 1 -5 -18z"/>
<path d="M2679 1346 c-1 -14 -2 -31 -3 -38 -1 -6 5 -13 12 -15 8 -3 12 7 12
31 0 40 -19 60 -21 22z"/>
<path d="M2638 1043 c-3 -32 -3 -64 -1 -70 4 -9 34 -13 104 -13 l99 0 0 71 c0
70 -1 71 -22 64 -40 -14 -148 -18 -148 -6 0 6 -6 11 -14 11 -9 0 -15 -18 -18
-57z m172 -17 c0 -10 -18 -13 -70 -14 -54 0 -70 3 -70 14 0 11 16 14 70 14 52
0 70 -3 70 -14z"/>
<path d="M2740 884 c0 -8 5 -12 10 -9 6 3 10 10 10 16 0 5 -4 9 -10 9 -5 0
-10 -7 -10 -16z"/>
<path d="M2706 811 c-4 -7 -5 -15 -2 -18 9 -9 19 4 14 18 -4 11 -6 11 -12 0z"/>
<path d="M2598 676 c-4 -18 -1 -26 8 -26 16 0 18 18 5 38 -6 10 -10 7 -13 -12z"/>
<path d="M2536 683 c-12 -12 -6 -33 9 -33 8 0 15 6 15 14 0 17 -14 28 -24 19z"/>
<path d="M2645 660 c-3 -5 -1 -10 4 -10 6 0 11 5 11 10 0 6 -2 10 -4 10 -3 0
-8 -4 -11 -10z"/>
<path d="M2560 575 c0 -10 -10 -15 -30 -15 -20 0 -30 -5 -30 -15 0 -8 7 -15
15 -15 9 0 15 -9 15 -25 0 -16 6 -25 15 -25 8 0 15 -7 15 -15 0 -8 7 -15 15
-15 8 0 15 7 15 15 0 8 7 15 15 15 9 0 15 9 15 25 0 14 5 25 10 25 6 0 10 7
10 15 0 9 -9 15 -25 15 -16 0 -25 6 -25 15 0 8 -7 15 -15 15 -8 0 -15 -7 -15
-15z"/>
</g>
</svg>
